<svg width="119" height="111" viewBox="0 0 119 111" fill="none" xmlns="http://www.w3.org/2000/svg">
<path d="M26.8013 56.352C33.8555 44.0318 45.9598 34.5752 59.5071 29.7138C48.6051 25.7846 36.9016 24.8523 26.3203 27.7159C2.51249 34.2423 -6.38539 57.5507 6.28007 79.8603C16.7812 98.2407 38.6652 110.228 59.3467 110.161C55.0982 110.161 50.8496 109.562 46.7614 108.496C23.0337 101.97 14.1359 78.6616 26.8013 56.352Z" fill="#FF0664"/>
<path d="M92.6928 27.7823C82.1116 24.9187 70.3279 25.851 59.5061 29.7802C72.9732 34.6417 85.1577 44.0983 92.2119 56.4185C104.877 78.728 95.9794 102.037 72.2517 108.496C68.1635 109.628 63.9952 110.161 59.6665 110.161C80.348 110.161 102.312 98.2406 112.733 79.8602C125.399 57.5506 116.421 34.2421 92.6928 27.7823Z" fill="#279900"/>
<path d="M92.2141 56.3525C85.1599 44.0323 73.0543 34.5752 59.5071 29.7138C46.04 34.5752 33.8555 44.0318 26.8013 56.352C14.1358 78.6616 23.035 101.971 46.7627 108.43C50.8509 109.563 55.0193 110.095 59.348 110.095C59.4282 110.095 59.4282 110.095 59.5083 110.095C59.5885 110.095 59.5885 110.095 59.6687 110.095C63.9172 110.095 68.1658 109.496 72.254 108.43C95.9015 101.971 104.88 78.6621 92.2141 56.3525Z" fill="#801BFF"/>
<path d="M87.1636 0.210912C81.1515 0.410699 63.9168 2.67495 61.031 21.7879C60.8707 22.8535 61.993 23.7858 63.2756 23.6526C86.2819 21.2552 89.0073 6.93708 89.2478 1.9424C89.328 0.943465 88.3661 0.144316 87.1636 0.210912Z" fill="#279900"/>
<path d="M36.1791 3.87374C34.9767 3.80714 34.0147 4.60629 34.0949 5.60523C34.4155 10.0671 36.9807 21.455 55.5781 23.5861C56.9409 23.7193 58.0631 22.7869 57.8226 21.7214C55.2575 6.33778 41.5499 4.14012 36.1791 3.87374Z" fill="#279900"/>
</svg>
