<svg width="108" height="109" viewBox="0 0 108 109" fill="none" xmlns="http://www.w3.org/2000/svg">
<path d="M102.421 52.3003C102.178 51.3909 102.056 50.9362 102.123 50.4932C102.19 50.0503 102.438 49.6569 102.934 48.8702L104.723 46.0326C107.938 40.932 105.74 34.1648 100.14 31.9282L96.9914 30.6704C96.1302 30.3264 95.6996 30.1544 95.3855 29.8367C95.0713 29.519 94.902 29.0813 94.5635 28.2057C94.3423 27.6336 94.1187 27.0617 93.8926 26.4899C91.684 20.9047 89.6845 15.8484 85.101 12.5322C80.5174 9.21587 75.0775 8.89763 69.0659 8.54596C68.4107 8.50762 67.756 8.47178 67.1018 8.43842C66.161 8.39045 65.6906 8.36647 65.2891 8.16564C64.8876 7.96481 64.5896 7.60685 63.9937 6.89092L61.4141 3.79195C57.5567 -0.842111 50.4413 -0.842106 46.5839 3.79195L44.0045 6.89076C43.4085 7.6067 43.1105 7.96468 42.709 8.1655C42.3075 8.36633 41.8371 8.39031 40.8963 8.43827C40.2411 8.47167 39.5854 8.50756 38.9292 8.54596C32.9176 8.89764 27.4777 9.21587 22.8941 12.5322C18.3106 15.8484 16.3111 20.9047 14.1025 26.4899C13.8763 27.0621 13.6524 27.6345 13.431 28.2071C13.0925 29.0826 12.9233 29.5204 12.6091 29.8381C12.2949 30.1558 11.8643 30.3278 11.0032 30.6718L7.85767 31.9282C2.25842 34.1648 0.0596316 40.932 3.27489 46.0326L5.06159 48.8669C5.55752 49.6537 5.80549 50.0471 5.87264 50.49C5.93979 50.933 5.81807 51.3877 5.57463 52.2971C5.28353 53.3845 4.99959 54.4759 4.72268 55.5715C3.27945 61.2818 1.9725 66.4528 3.68562 71.7567C5.39868 77.0605 9.47476 80.4827 13.974 84.2601C14.7554 84.9161 15.5395 85.5654 16.3266 86.2082C17.0532 86.8015 17.4165 87.0982 17.6208 87.4945C17.8251 87.8908 17.8556 88.3527 17.9165 89.2765L18.067 91.558C18.4638 97.5743 24.2204 101.757 30.0649 100.275L32.2305 99.7259C33.1318 99.4974 33.5825 99.3832 34.0242 99.456C34.4659 99.5288 34.8612 99.7851 35.6519 100.298C36.7645 101.019 37.886 101.732 39.017 102.436C43.9669 105.521 48.4521 108.316 53.9975 108.316C59.5429 108.316 64.0282 105.521 68.978 102.436C70.1094 101.731 71.2311 101.018 72.344 100.297C73.1347 99.7845 73.53 99.5283 73.9717 99.4555C74.4134 99.3826 74.8641 99.4969 75.7654 99.7254L77.9331 100.275C83.7777 101.757 89.5342 97.5743 89.931 91.558L90.0817 89.2739C90.1426 88.3502 90.1731 87.8883 90.3774 87.492C90.5816 87.0957 90.9449 86.799 91.6715 86.2057C92.4576 85.5638 93.2407 84.9153 94.0211 84.2601C98.5203 80.4826 102.596 77.0605 104.309 71.7567C106.023 66.4528 104.716 61.2818 103.272 55.5715C102.996 54.477 102.712 53.3867 102.421 52.3003Z" fill="#052D44"/>
<path d="M57.0859 14.3527C55.4777 12.4293 52.511 12.4293 50.9028 14.3527L42.1806 24.7838C41.9913 25.0103 41.7173 25.149 41.4225 25.1643C37.3501 25.3755 32.5167 25.2631 29.0881 27.7316C26.538 29.5677 25.3093 32.2945 23.2258 37.479C23.1162 37.7517 22.8993 37.9687 22.6262 38.0773L12.5748 42.0742C10.2403 43.0025 9.32355 45.8112 10.6641 47.9282L16.1915 56.6573C16.3527 56.9119 16.3992 57.2225 16.3204 57.5134C15.8757 59.1542 15.444 60.8184 15.0363 62.438C13.4754 68.638 12.695 71.7379 13.7268 74.9171C14.7587 78.0963 17.2064 80.1499 22.1017 84.2572C22.8977 84.9251 23.7117 85.6013 24.5321 86.2744C24.7618 86.4627 24.9035 86.7375 24.9232 87.0339L25.3041 92.7825C25.4695 95.2796 27.8696 97.0155 30.3063 96.4005L35.6671 95.0475C35.9597 94.9737 36.2698 95.0267 36.5218 95.1927C38.4907 96.4896 40.5586 97.7967 42.555 99.0292C47.9543 102.362 50.654 104.029 53.9944 104.029C57.3347 104.029 60.0344 102.362 65.4337 99.0292C67.4301 97.7967 69.498 96.4896 71.4669 95.1928C71.7189 95.0268 72.029 94.9737 72.3216 95.0476L77.6824 96.4005C80.1191 97.0155 82.5192 95.2796 82.6846 92.7825L83.0656 87.0339C83.0852 86.7375 83.227 86.4627 83.4566 86.2744C84.277 85.6013 85.091 84.9251 85.887 84.2572C90.7823 80.1499 93.23 78.0963 94.2619 74.9171C95.2937 71.7379 94.5133 68.638 92.9525 62.4381C92.5447 60.8185 92.113 59.1542 91.6683 57.5134C91.5895 57.2225 91.636 56.9119 91.7972 56.6573L97.3246 47.9282C98.6652 45.8112 97.7484 43.0025 95.4139 42.0742L85.3625 38.0773C85.0894 37.9687 84.8725 37.7517 84.7629 37.479C82.6794 32.2945 81.4507 29.5677 78.9006 27.7316C76.1401 25.7441 72.8573 25.546 66.2917 25.1499C66.1724 25.1427 66.0613 25.0867 65.9847 24.995L57.0859 14.3527Z" fill="#021F2F"/>
<path d="M57.2999 5.07594C55.5855 3.01635 52.4231 3.01635 50.7087 5.07594L45.8817 10.8749C45.5844 11.232 45.4358 11.4106 45.2347 11.511C45.0336 11.6115 44.8004 11.6231 44.3341 11.6464C43.0511 11.7104 41.7679 11.7822 40.5085 11.8586C33.3031 12.2954 29.7003 12.5139 26.6708 14.7058C23.6413 16.8977 22.3111 20.2408 19.6506 26.9272C19.1593 28.1619 18.6649 29.4239 18.1799 30.6881C18.013 31.123 17.9296 31.3404 17.7722 31.5C17.6148 31.6595 17.3997 31.7455 16.9694 31.9174L9.85124 34.7607C7.36268 35.7547 6.38544 38.7623 7.81445 41.0293L11.9412 47.5758C12.1866 47.9651 12.3093 48.1598 12.3432 48.38C12.3771 48.6001 12.3183 48.8238 12.2008 49.2712C11.874 50.5146 11.5557 51.759 11.2497 52.9804C9.53678 59.8177 8.68031 63.2364 9.81272 66.7424C10.9451 70.2484 13.6313 72.5132 19.0037 77.0429C20.0207 77.9003 21.0646 78.7704 22.1152 79.6328C22.4722 79.9258 22.6507 80.0723 22.7523 80.27C22.8538 80.4676 22.8689 80.6968 22.8992 81.1551L23.4206 89.0602C23.597 91.7341 26.1554 93.5929 28.753 92.9344L36.4567 90.9813C36.9009 90.8687 37.1231 90.8124 37.3421 90.8477C37.5611 90.8829 37.7553 91.0069 38.1438 91.2547C39.25 91.9603 40.3597 92.6571 41.4501 93.3335C47.3755 97.0092 50.3382 98.8471 54.0041 98.8471C57.67 98.8471 60.6327 97.0092 66.5581 93.3335C67.6485 92.6571 68.7583 91.9603 69.8645 91.2546C70.253 91.0068 70.4472 90.8828 70.6662 90.8476C70.8852 90.8123 71.1074 90.8686 71.5516 90.9812L79.2557 92.9344C81.8532 93.5929 84.4117 91.7341 84.5881 89.0602L85.1095 81.1546C85.1398 80.6963 85.1549 80.4672 85.2564 80.2695C85.358 80.0719 85.5365 79.9254 85.8934 79.6324C86.9439 78.7701 87.9876 77.9002 89.0045 77.0428C94.3768 72.5132 97.063 70.2484 98.1954 66.7424C99.3278 63.2364 98.4714 59.8177 96.7584 52.9804C96.4525 51.7592 96.1342 50.515 95.8075 49.2717C95.69 48.8244 95.6312 48.6007 95.6651 48.3805C95.699 48.1604 95.8217 47.9657 96.0671 47.5764L100.194 41.0293C101.623 38.7623 100.646 35.7547 98.1574 34.7607L91.0387 31.9171C90.6084 31.7452 90.3932 31.6593 90.2358 31.4997C90.0784 31.3402 89.995 31.1227 89.8282 30.6879C89.3432 29.4237 88.8488 28.1619 88.3575 26.9272C85.6971 20.2409 84.3668 16.8976 81.3373 14.7058C78.3078 12.5139 74.7051 12.2954 67.4997 11.8586C66.2404 11.7822 64.9574 11.7104 63.6745 11.6464C63.2082 11.6231 62.9751 11.6115 62.774 11.5111C62.5729 11.4106 62.4243 11.2321 62.127 10.8749L57.2999 5.07594Z" fill="#FFC90B"/>
<g filter="url(#filter0_i_578_17519)">
<path d="M58.1914 86.0383C56.1747 87.2328 55.1664 87.83 53.9918 87.83C52.8173 87.83 51.8089 87.2328 49.7922 86.0383C45.9005 83.7333 40.1126 80.1996 36.0233 77.2361C31.9309 74.2704 26.7726 69.8704 23.3597 66.8787C21.5779 65.3167 20.6869 64.5358 20.3234 63.4081C19.9598 62.2804 20.2272 61.1245 20.7619 58.8128C21.779 54.4159 23.3762 47.8833 24.9182 43.1104C26.468 38.3133 29.008 32.0566 30.7749 27.8575C31.7138 25.6261 32.1832 24.5104 33.1591 23.806C34.1349 23.1016 35.3435 23.0071 37.7607 22.8183C42.2829 22.465 48.979 22.0195 53.9918 22.0195C59.0047 22.0195 65.7008 22.465 70.223 22.8183C72.6401 23.0071 73.8487 23.1016 74.8246 23.806C75.8004 24.5104 76.2699 25.6261 77.2088 27.8575C78.9757 32.0566 81.5157 38.3133 83.0655 43.1104C84.6075 47.8833 86.2047 54.4159 87.2217 58.8128C87.7565 61.1245 88.0239 62.2804 87.6603 63.4081C87.2967 64.5358 86.4058 65.3167 84.624 66.8787C81.211 69.8704 76.0528 74.2704 71.9604 77.2361C67.8711 80.1996 62.0831 83.7333 58.1914 86.0383Z" fill="#F39508"/>
</g>
<ellipse cx="33.6295" cy="24.6998" rx="5.35993" ry="5.35993" fill="white"/>
<defs>
<filter id="filter0_i_578_17519" x="20.1562" y="22.0195" width="67.6719" height="65.8086" filterUnits="userSpaceOnUse" color-interpolation-filters="sRGB">
<feFlood flood-opacity="0" result="BackgroundImageFix"/>
<feBlend mode="normal" in="SourceGraphic" in2="BackgroundImageFix" result="shape"/>
<feColorMatrix in="SourceAlpha" type="matrix" values="0 0 0 0 0 0 0 0 0 0 0 0 0 0 0 0 0 0 127 0" result="hardAlpha"/>
<feOffset dx="2.541" dy="2.541"/>
<feComposite in2="hardAlpha" operator="arithmetic" k2="-1" k3="1"/>
<feColorMatrix type="matrix" values="0 0 0 0 0.878431 0 0 0 0 0.47451 0 0 0 0 0 0 0 0 1 0"/>
<feBlend mode="normal" in2="shape" result="effect1_innerShadow_578_17519"/>
</filter>
</defs>
</svg>
