<svg width="108" height="109" viewBox="0 0 108 109" fill="none" xmlns="http://www.w3.org/2000/svg">
<path d="M102.425 52.3589C102.182 51.4495 102.06 50.9948 102.127 50.5518C102.194 50.1089 102.442 49.7155 102.938 48.9288L104.727 46.0912C107.942 40.9906 105.743 34.2234 100.144 31.9868L96.9953 30.729C96.1341 30.385 95.7035 30.213 95.3894 29.8953C95.0752 29.5776 94.9059 29.1399 94.5674 28.2643C94.3462 27.6922 94.1226 27.1202 93.8965 26.5485C91.6879 20.9633 89.6884 15.9069 85.1049 12.5908C80.5213 9.27446 75.0814 8.95623 69.0698 8.60455C68.4146 8.56622 67.7599 8.53037 67.1057 8.49701C66.1649 8.44905 65.6945 8.42506 65.293 8.22423C64.8915 8.02341 64.5935 7.66544 63.9976 6.94951L61.418 3.85054C57.5606 -0.783517 50.4452 -0.783513 46.5878 3.85055L44.0084 6.94935C43.4124 7.6653 43.1144 8.02327 42.7129 8.2241C42.3114 8.42492 41.841 8.4489 40.9002 8.49686C40.245 8.53026 39.5893 8.56616 38.9331 8.60455C32.9215 8.95623 27.4816 9.27447 22.898 12.5908C18.3145 15.9069 16.315 20.9633 14.1064 26.5485C13.8802 27.1207 13.6563 27.6931 13.435 28.2657C13.0964 29.1412 12.9272 29.579 12.613 29.8967C12.2988 30.2144 11.8682 30.3864 11.0071 30.7303L7.86158 31.9868C2.26232 34.2234 0.0635378 40.9906 3.27879 46.0912L5.06549 48.9255C5.56143 49.7123 5.8094 50.1056 5.87655 50.5486C5.9437 50.9916 5.82198 51.4463 5.57854 52.3557C5.28744 53.4431 5.00349 54.5345 4.72658 55.6301C3.28335 61.3404 1.9764 66.5114 3.68953 71.8153C5.40259 77.1191 9.47866 80.5412 13.9779 84.3187C14.7593 84.9747 15.5434 85.624 16.3305 86.2668C17.0571 86.8601 17.4204 87.1567 17.6247 87.5531C17.829 87.9494 17.8595 88.4113 17.9204 89.335L18.0709 91.6166C18.4678 97.6329 24.2243 101.815 30.0688 100.334L32.2344 99.7845C33.1357 99.556 33.5864 99.4418 34.0281 99.5146C34.4698 99.5874 34.8652 99.8437 35.6558 100.356C36.7684 101.077 37.8899 101.79 39.0209 102.495C43.9708 105.58 48.456 108.375 54.0014 108.375C59.5468 108.375 64.0321 105.58 68.9819 102.495C70.1133 101.79 71.235 101.077 72.3479 100.356C73.1386 99.8431 73.5339 99.5869 73.9756 99.5141C74.4173 99.4412 74.868 99.5555 75.7693 99.784L77.937 100.334C83.7816 101.815 89.5381 97.6329 89.9349 91.6166L90.0856 89.3325C90.1465 88.4088 90.177 87.9469 90.3813 87.5506C90.5855 87.1543 90.9488 86.8576 91.6754 86.2643C92.4615 85.6224 93.2446 84.9739 94.025 84.3186C98.5242 80.5412 102.6 77.1191 104.313 71.8153C106.026 66.5114 104.72 61.3404 103.276 55.6301C103 54.5356 102.716 53.4453 102.425 52.3589Z" fill="#052D44"/>
<path d="M57.0937 14.4113C55.4855 12.4879 52.5188 12.4879 50.9106 14.4113L42.1884 24.8424C41.9991 25.0689 41.7251 25.2076 41.4303 25.2229C37.3579 25.4341 32.5245 25.3216 29.0959 27.7902C26.5458 29.6263 25.3171 32.3531 23.2336 37.5376C23.124 37.8103 22.9071 38.0273 22.634 38.1359L12.5826 42.1328C10.2481 43.0611 9.33136 45.8698 10.6719 47.9868L16.1993 56.7158C16.3605 56.9705 16.407 57.2811 16.3282 57.572C15.8835 59.2128 15.4518 60.877 15.0441 62.4966C13.4832 68.6966 12.7028 71.7965 13.7347 74.9757C14.7665 78.1549 17.2142 80.2085 22.1095 84.3158C22.9055 84.9837 23.7195 85.6599 24.5399 86.3329C24.7696 86.5213 24.9113 86.7961 24.931 87.0925L25.3119 92.8411C25.4773 95.3382 27.8774 97.0741 30.3142 96.4591L35.6749 95.1061C35.9675 95.0323 36.2776 95.0853 36.5296 95.2513C38.4985 96.5482 40.5664 97.8553 42.5629 99.0878C47.9621 102.421 50.6618 104.087 54.0022 104.087C57.3425 104.087 60.0422 102.421 65.4415 99.0878C67.4379 97.8553 69.5058 96.5482 71.4747 95.2514C71.7267 95.0854 72.0368 95.0323 72.3294 95.1061L77.6902 96.4591C80.1269 97.0741 82.527 95.3382 82.6924 92.8411L83.0734 87.0925C83.093 86.7961 83.2348 86.5213 83.4644 86.3329C84.2848 85.6599 85.0988 84.9837 85.8948 84.3158C90.7901 80.2085 93.2378 78.1548 94.2697 74.9757C95.3015 71.7965 94.5211 68.6966 92.9603 62.4967C92.5525 60.877 92.1208 59.2128 91.6761 57.572C91.5973 57.2811 91.6438 56.9705 91.805 56.7158L97.3324 47.9868C98.673 45.8698 97.7562 43.0611 95.4217 42.1328L85.3703 38.1359C85.0972 38.0273 84.8803 37.8103 84.7708 37.5376C82.6872 32.3531 81.4585 29.6263 78.9084 27.7902C76.1479 25.8027 72.8651 25.6046 66.2995 25.2085C66.1802 25.2013 66.0691 25.1453 65.9925 25.0536L57.0937 14.4113Z" fill="#021F2F"/>
<path d="M57.296 5.13453C55.5816 3.07495 52.4192 3.07495 50.7048 5.13453L45.8778 10.9335C45.5805 11.2906 45.4319 11.4692 45.2308 11.5696C45.0297 11.6701 44.7965 11.6817 44.3302 11.705C43.0472 11.769 41.764 11.8408 40.5046 11.9172C33.2991 12.354 29.6964 12.5725 26.6669 14.7643C23.6374 16.9562 22.3072 20.2994 19.6467 26.9858C19.1554 28.2205 18.661 29.4825 18.176 30.7467C18.0091 31.1816 17.9257 31.399 17.7683 31.5586C17.6109 31.7181 17.3958 31.8041 16.9655 31.9759L9.84733 34.8192C7.35878 35.8133 6.38154 38.8209 7.81054 41.0878L11.9373 47.6344C12.1827 48.0237 12.3054 48.2184 12.3393 48.4385C12.3732 48.6587 12.3144 48.8824 12.1969 49.3297C11.8701 50.5732 11.5518 51.8176 11.2458 53.039C9.53287 59.8763 8.6764 63.295 9.80881 66.801C10.9412 70.307 13.6274 72.5718 18.9998 77.1014C20.0168 77.9589 21.0607 78.829 22.1113 79.6914C22.4683 79.9844 22.6468 80.1309 22.7484 80.3286C22.8499 80.5262 22.865 80.7554 22.8953 81.2136L23.4167 89.1187C23.5931 91.7927 26.1515 93.6515 28.7491 92.9929L36.4527 91.0399C36.897 90.9273 37.1192 90.8709 37.3382 90.9062C37.5571 90.9415 37.7514 91.0654 38.1399 91.3133C39.246 92.0189 40.3558 92.7157 41.4461 93.3921C47.3716 97.0678 50.3343 98.9057 54.0001 98.9057C57.666 98.9057 60.6287 97.0678 66.5541 93.3921C67.6446 92.7157 68.7544 92.0189 69.8606 91.3132C70.2491 91.0653 70.4433 90.9414 70.6623 90.9061C70.8813 90.8708 71.1034 90.9272 71.5477 91.0398L79.2517 92.9929C81.8493 93.6515 84.4077 91.7927 84.5841 89.1187L85.1056 81.2132C85.1358 80.7549 85.1509 80.5258 85.2525 80.3281C85.3541 80.1305 85.5326 79.9839 85.8895 79.6909C86.94 78.8287 87.9837 77.9588 89.0005 77.1014C94.3729 72.5718 97.0591 70.307 98.1915 66.801C99.3239 63.295 98.4674 59.8763 96.7545 53.039C96.4486 51.8178 96.1303 50.5736 95.8036 49.3303C95.6861 48.8829 95.6273 48.6593 95.6612 48.4391C95.6951 48.219 95.8178 48.0243 96.0632 47.635L100.19 41.0878C101.619 38.8209 100.642 35.8133 98.1535 34.8192L91.0347 31.9757C90.6044 31.8038 90.3893 31.7179 90.2319 31.5583C90.0745 31.3988 89.9911 31.1813 89.8242 30.7465C89.3392 29.4823 88.8449 28.2205 88.3536 26.9858C85.6932 20.2995 84.3629 16.9562 81.3334 14.7643C78.3039 12.5724 74.7012 12.354 67.4957 11.9171C66.2365 11.8408 64.9535 11.769 63.6706 11.705C63.2043 11.6817 62.9712 11.6701 62.7701 11.5697C62.569 11.4692 62.4204 11.2906 62.1231 10.9335L57.296 5.13453Z" fill="#D7E4FF"/>
<g filter="url(#filter0_i_578_17520)">
<path d="M58.2031 86.0969C56.1865 87.2914 55.1781 87.8886 54.0035 87.8886C52.829 87.8886 51.8206 87.2914 49.804 86.0969C45.9123 83.7919 40.1243 80.2582 36.035 77.2947C31.9426 74.329 26.7844 69.929 23.3714 66.9373C21.5896 65.3753 20.6987 64.5944 20.3351 63.4667C19.9715 62.339 20.2389 61.1831 20.7736 58.8714C21.7907 54.4745 23.3879 47.9419 24.9299 43.169C26.4797 38.3719 29.0197 32.1152 30.7866 27.9161C31.7255 25.6847 32.195 24.569 33.1708 23.8646C34.1467 23.1601 35.3552 23.0657 37.7724 22.8769C42.2946 22.5236 48.9907 22.0781 54.0036 22.0781C59.0164 22.0781 65.7125 22.5236 70.2347 22.8769C72.6519 23.0657 73.8604 23.1601 74.8363 23.8646C75.8121 24.569 76.2816 25.6847 77.2205 27.9161C78.9874 32.1152 81.5274 38.3719 83.0772 43.169C84.6192 47.9419 86.2164 54.4745 87.2335 58.8714C87.7682 61.1831 88.0356 62.339 87.672 63.4667C87.3084 64.5944 86.4175 65.3753 84.6357 66.9373C81.2227 69.929 76.0645 74.329 71.9721 77.2947C67.8828 80.2582 62.0948 83.7919 58.2031 86.0969Z" fill="#AFC0E2"/>
</g>
<circle cx="33.6373" cy="24.7584" r="5.35992" fill="white"/>
<defs>
<filter id="filter0_i_578_17520" x="20.168" y="22.0781" width="67.6719" height="65.8086" filterUnits="userSpaceOnUse" color-interpolation-filters="sRGB">
<feFlood flood-opacity="0" result="BackgroundImageFix"/>
<feBlend mode="normal" in="SourceGraphic" in2="BackgroundImageFix" result="shape"/>
<feColorMatrix in="SourceAlpha" type="matrix" values="0 0 0 0 0 0 0 0 0 0 0 0 0 0 0 0 0 0 127 0" result="hardAlpha"/>
<feOffset dx="2.14397" dy="2.14397"/>
<feComposite in2="hardAlpha" operator="arithmetic" k2="-1" k3="1"/>
<feColorMatrix type="matrix" values="0 0 0 0 0.522013 0 0 0 0 0.597987 0 0 0 0 0.749935 0 0 0 1 0"/>
<feBlend mode="normal" in2="shape" result="effect1_innerShadow_578_17520"/>
</filter>
</defs>
</svg>
