<svg width="108" height="109" viewBox="0 0 108 109" fill="none" xmlns="http://www.w3.org/2000/svg">
<path d="M102.421 52.3589C102.178 51.4495 102.056 50.9948 102.123 50.5518C102.19 50.1089 102.438 49.7155 102.934 48.9288L104.723 46.0912C107.938 40.9906 105.74 34.2234 100.14 31.9868L96.9914 30.729C96.1302 30.385 95.6996 30.213 95.3855 29.8953C95.0713 29.5776 94.902 29.1399 94.5635 28.2643C94.3423 27.6922 94.1187 27.1202 93.8926 26.5485C91.684 20.9633 89.6845 15.9069 85.101 12.5908C80.5174 9.27446 75.0775 8.95623 69.0659 8.60455C68.4107 8.56622 67.756 8.53037 67.1018 8.49701C66.161 8.44905 65.6906 8.42506 65.2891 8.22423C64.8876 8.02341 64.5896 7.66544 63.9937 6.94951L61.4141 3.85054C57.5567 -0.783517 50.4413 -0.783513 46.5839 3.85055L44.0045 6.94935C43.4085 7.6653 43.1105 8.02327 42.709 8.2241C42.3075 8.42492 41.8371 8.4489 40.8963 8.49686C40.2411 8.53026 39.5854 8.56616 38.9292 8.60455C32.9176 8.95623 27.4777 9.27447 22.8941 12.5908C18.3106 15.9069 16.3111 20.9633 14.1025 26.5485C13.8763 27.1207 13.6524 27.6931 13.431 28.2657C13.0925 29.1412 12.9233 29.579 12.6091 29.8967C12.2949 30.2144 11.8643 30.3864 11.0032 30.7303L7.85767 31.9868C2.25842 34.2234 0.0596316 40.9906 3.27489 46.0912L5.06159 48.9255C5.55752 49.7123 5.80549 50.1056 5.87264 50.5486C5.93979 50.9916 5.81807 51.4463 5.57463 52.3557C5.28353 53.4431 4.99959 54.5345 4.72268 55.6301C3.27945 61.3404 1.9725 66.5114 3.68562 71.8153C5.39868 77.1191 9.47476 80.5412 13.974 84.3187C14.7554 84.9747 15.5395 85.624 16.3266 86.2668C17.0532 86.8601 17.4165 87.1567 17.6208 87.5531C17.8251 87.9494 17.8556 88.4113 17.9165 89.335L18.067 91.6166C18.4638 97.6329 24.2204 101.815 30.0649 100.334L32.2305 99.7845C33.1318 99.556 33.5825 99.4418 34.0242 99.5146C34.4659 99.5874 34.8612 99.8437 35.6519 100.356C36.7645 101.077 37.886 101.79 39.017 102.495C43.9669 105.58 48.4521 108.375 53.9975 108.375C59.5429 108.375 64.0282 105.58 68.978 102.495C70.1094 101.79 71.2311 101.077 72.344 100.356C73.1347 99.8431 73.53 99.5869 73.9717 99.5141C74.4134 99.4412 74.8641 99.5555 75.7654 99.784L77.9331 100.334C83.7777 101.815 89.5342 97.6329 89.931 91.6166L90.0817 89.3325C90.1426 88.4088 90.1731 87.9469 90.3774 87.5506C90.5816 87.1543 90.9449 86.8576 91.6715 86.2643C92.4576 85.6224 93.2407 84.9739 94.0211 84.3186C98.5203 80.5412 102.596 77.1191 104.309 71.8153C106.023 66.5114 104.716 61.3404 103.272 55.6301C102.996 54.5356 102.712 53.4453 102.421 52.3589Z" fill="#052D44"/>
<path d="M57.0898 14.4113C55.4816 12.4879 52.5149 12.4879 50.9067 14.4113L42.1845 24.8424C41.9952 25.0689 41.7212 25.2076 41.4264 25.2229C37.354 25.4341 32.5206 25.3216 29.092 27.7902C26.5419 29.6263 25.3132 32.3531 23.2297 37.5376C23.1201 37.8103 22.9032 38.0273 22.6301 38.1359L12.5787 42.1328C10.2442 43.0611 9.32745 45.8698 10.668 47.9868L16.1954 56.7158C16.3566 56.9705 16.4031 57.2811 16.3243 57.572C15.8796 59.2128 15.4479 60.877 15.0402 62.4966C13.4793 68.6966 12.6989 71.7965 13.7307 74.9757C14.7626 78.1549 17.2103 80.2085 22.1056 84.3158C22.9016 84.9837 23.7156 85.6599 24.536 86.3329C24.7657 86.5213 24.9074 86.7961 24.9271 87.0925L25.308 92.8411C25.4734 95.3382 27.8735 97.0741 30.3103 96.4591L35.671 95.1061C35.9636 95.0323 36.2737 95.0853 36.5257 95.2513C38.4946 96.5482 40.5625 97.8553 42.559 99.0878C47.9582 102.421 50.6579 104.087 53.9983 104.087C57.3387 104.087 60.0383 102.421 65.4376 99.0878C67.434 97.8553 69.5019 96.5482 71.4708 95.2514C71.7228 95.0854 72.0329 95.0323 72.3255 95.1061L77.6863 96.4591C80.123 97.0741 82.5231 95.3382 82.6886 92.8411L83.0695 87.0925C83.0891 86.7961 83.2309 86.5213 83.4605 86.3329C84.281 85.6599 85.0949 84.9837 85.8909 84.3158C90.7862 80.2085 93.2339 78.1548 94.2658 74.9757C95.2976 71.7965 94.5172 68.6966 92.9564 62.4967C92.5486 60.877 92.1169 59.2128 91.6722 57.572C91.5934 57.2811 91.6399 56.9705 91.8011 56.7158L97.3285 47.9868C98.6691 45.8698 97.7523 43.0611 95.4179 42.1328L85.3664 38.1359C85.0933 38.0273 84.8764 37.8103 84.7669 37.5376C82.6834 32.3531 81.4546 29.6263 78.9045 27.7902C76.144 25.8027 72.8612 25.6046 66.2956 25.2085C66.1763 25.2013 66.0652 25.1453 65.9886 25.0536L57.0898 14.4113Z" fill="#021F2F"/>
<path d="M57.2921 5.13453C55.5777 3.07495 52.4153 3.07495 50.7009 5.13453L45.8739 10.9335C45.5766 11.2906 45.428 11.4692 45.2269 11.5696C45.0258 11.6701 44.7926 11.6817 44.3263 11.705C43.0433 11.769 41.7601 11.8408 40.5007 11.9172C33.2952 12.354 29.6925 12.5725 26.663 14.7643C23.6335 16.9562 22.3033 20.2994 19.6428 26.9858C19.1515 28.2205 18.6571 29.4825 18.1721 30.7467C18.0052 31.1816 17.9218 31.399 17.7644 31.5586C17.607 31.7181 17.3919 31.8041 16.9616 31.9759L9.84343 34.8192C7.35487 35.8133 6.37763 38.8209 7.80663 41.0878L11.9334 47.6344C12.1788 48.0237 12.3015 48.2184 12.3354 48.4385C12.3693 48.6587 12.3105 48.8824 12.193 49.3297C11.8662 50.5732 11.5479 51.8176 11.2419 53.039C9.52897 59.8763 8.6725 63.295 9.80491 66.801C10.9373 70.307 13.6235 72.5718 18.9959 77.1014C20.0129 77.9589 21.0568 78.829 22.1074 79.6914C22.4644 79.9844 22.6429 80.1309 22.7444 80.3286C22.846 80.5262 22.8611 80.7554 22.8914 81.2136L23.4128 89.1187C23.5892 91.7927 26.1476 93.6515 28.7452 92.9929L36.4488 91.0399C36.8931 90.9273 37.1153 90.8709 37.3343 90.9062C37.5532 90.9415 37.7475 91.0654 38.136 91.3133C39.2421 92.0189 40.3519 92.7157 41.4422 93.3921C47.3677 97.0678 50.3304 98.9057 53.9963 98.9057C57.6621 98.9057 60.6249 97.0678 66.5503 93.3921C67.6407 92.7157 68.7505 92.0189 69.8567 91.3132C70.2452 91.0653 70.4394 90.9414 70.6584 90.9061C70.8774 90.8708 71.0995 90.9272 71.5438 91.0398L79.2478 92.9929C81.8454 93.6515 84.4039 91.7927 84.5802 89.1187L85.1017 81.2132C85.132 80.7549 85.1471 80.5258 85.2486 80.3281C85.3502 80.1305 85.5287 79.9839 85.8856 79.6909C86.9361 78.8287 87.9798 77.9588 88.9967 77.1014C94.369 72.5718 97.0552 70.307 98.1876 66.801C99.32 63.295 98.4636 59.8763 96.7506 53.039C96.4447 51.8178 96.1264 50.5736 95.7997 49.3303C95.6822 48.8829 95.6234 48.6593 95.6573 48.4391C95.6912 48.219 95.8139 48.0243 96.0593 47.635L100.186 41.0878C101.615 38.8209 100.638 35.8133 98.1496 34.8192L91.0309 31.9757C90.6006 31.8038 90.3854 31.7179 90.228 31.5583C90.0706 31.3988 89.9872 31.1813 89.8204 30.7465C89.3354 29.4823 88.841 28.2205 88.3497 26.9858C85.6893 20.2995 84.359 16.9562 81.3295 14.7643C78.3 12.5724 74.6973 12.354 67.4919 11.9171C66.2326 11.8408 64.9496 11.769 63.6667 11.705C63.2004 11.6817 62.9673 11.6701 62.7662 11.5697C62.5651 11.4692 62.4165 11.2906 62.1192 10.9335L57.2921 5.13453Z" fill="#CD7F32"/>
<g filter="url(#filter0_i_578_17521)">
<path d="M58.2031 86.0969C56.1865 87.2914 55.1781 87.8886 54.0035 87.8886C52.829 87.8886 51.8206 87.2914 49.804 86.0969C45.9123 83.7919 40.1243 80.2582 36.035 77.2947C31.9426 74.329 26.7844 69.929 23.3714 66.9373C21.5896 65.3753 20.6987 64.5944 20.3351 63.4667C19.9715 62.339 20.2389 61.1831 20.7736 58.8714C21.7907 54.4745 23.3879 47.9419 24.9299 43.169C26.4797 38.3719 29.0197 32.1152 30.7866 27.9161C31.7255 25.6847 32.195 24.569 33.1708 23.8646C34.1467 23.1601 35.3552 23.0657 37.7724 22.8769C42.2946 22.5236 48.9907 22.0781 54.0036 22.0781C59.0164 22.0781 65.7125 22.5236 70.2347 22.8769C72.6519 23.0657 73.8604 23.1601 74.8363 23.8646C75.8121 24.569 76.2816 25.6847 77.2205 27.9161C78.9874 32.1152 81.5274 38.3719 83.0772 43.169C84.6192 47.9419 86.2164 54.4745 87.2335 58.8714C87.7682 61.1831 88.0356 62.339 87.672 63.4667C87.3084 64.5944 86.4175 65.3753 84.6357 66.9373C81.2227 69.929 76.0645 74.329 71.9721 77.2947C67.8828 80.2582 62.0948 83.7919 58.2031 86.0969Z" fill="#BD5B02"/>
</g>
<ellipse cx="33.6334" cy="24.7584" rx="5.35993" ry="5.35992" fill="white"/>
<defs>
<filter id="filter0_i_578_17521" x="20.168" y="22.0781" width="67.6719" height="65.8086" filterUnits="userSpaceOnUse" color-interpolation-filters="sRGB">
<feFlood flood-opacity="0" result="BackgroundImageFix"/>
<feBlend mode="normal" in="SourceGraphic" in2="BackgroundImageFix" result="shape"/>
<feColorMatrix in="SourceAlpha" type="matrix" values="0 0 0 0 0 0 0 0 0 0 0 0 0 0 0 0 0 0 127 0" result="hardAlpha"/>
<feOffset dx="2.14397" dy="2.14397"/>
<feComposite in2="hardAlpha" operator="arithmetic" k2="-1" k3="1"/>
<feColorMatrix type="matrix" values="0 0 0 0 0.557992 0 0 0 0 0.235526 0 0 0 0 0.00201618 0 0 0 1 0"/>
<feBlend mode="normal" in2="shape" result="effect1_innerShadow_578_17521"/>
</filter>
</defs>
</svg>
