<svg width="56" height="56" viewBox="0 0 56 56" xmlns="http://www.w3.org/2000/svg">
<path d="M21.2309 25.0529C21.4917 25.0618 21.7112 24.863 22.1501 24.4653L27.3829 19.7239C28.0923 19.0811 28.447 18.7597 28.8606 18.7909C29.2742 18.8222 29.5764 19.1931 30.1808 19.9351L34.957 25.7987C35.3159 26.2393 35.4953 26.4596 35.7456 26.4946C35.9958 26.5296 36.2286 26.367 36.6941 26.0416L39.0216 24.4151C40.0713 23.6816 40.5961 23.3148 40.9567 23.5401C41.3172 23.7653 41.2243 24.4019 41.0385 25.6751L39.6709 35.0449C39.5859 35.6276 39.5434 35.919 39.3391 36.0801C39.1349 36.2412 38.8443 36.2127 38.263 36.1557L16.8894 34.06C16.3081 34.003 16.0174 33.9745 15.8484 33.7768C15.6794 33.5791 15.6943 33.285 15.724 32.6969L16.2024 23.2399C16.2675 21.9549 16.3 21.3124 16.6974 21.1614C17.0948 21.0105 17.5384 21.4722 18.4256 22.3957L20.3552 24.404C20.7651 24.8307 20.97 25.044 21.2309 25.0529Z"/>
<path fill-rule="evenodd" clip-rule="evenodd" d="M53.5 28C53.5 41.8071 42.3071 53 28.5 53C14.6929 53 3.5 41.8071 3.5 28C3.5 14.1929 14.6929 3 28.5 3C42.3071 3 53.5 14.1929 53.5 28ZM46.5 28C46.5 37.9411 38.4411 46 28.5 46C18.5589 46 10.5 37.9411 10.5 28C10.5 18.0589 18.5589 10 28.5 10C38.4411 10 46.5 18.0589 46.5 28Z"/>
</svg>
