<svg width="56" height="56" viewBox="0 0 56 56" fill="none" xmlns="http://www.w3.org/2000/svg">
<path d="M42.534 21.9026C44.1731 22.3417 46.0293 22.9806 47.442 21.7039C49.1073 20.1989 49.9336 15.4582 49.1613 13.3743C48.3265 11.1215 46.1926 10.4799 44.0472 9.92936C40.2466 8.95412 34.3175 8.00639 28.0093 8.00193C25.6798 8.00028 22.2426 7.83968 21.8653 10.8557C21.7009 12.1693 22.3015 14.1471 22.921 15.3213C23.6635 16.7286 24.9406 17.1891 26.3764 17.5738L42.534 21.9026Z"/>
<path d="M23.2319 38.8561C22.0606 40.0275 20.6384 41.2828 20.9939 43.0953C21.4329 45.3342 25.2091 48.4775 27.4122 48.824C29.7847 49.1971 31.4069 47.6244 32.9591 46.0447C35.7198 43.2351 39.4931 38.6309 42.6563 33.1997C43.8198 31.2019 45.6546 28.3598 43.2936 26.5117C42.2188 25.6705 40.0956 25.1754 38.7277 25.1353C37.1371 25.0886 36.1092 25.9779 35.057 27.0302L23.2319 38.8561Z"/>
<path d="M15.726 9.58614C13.5366 8.79032 8.80364 10.532 7.39448 12.3356C5.94719 14.1879 6.48853 16.3446 7.06468 18.4424C8.10271 22.2221 10.2159 27.7811 13.3623 33.1997C14.5336 35.2169 16.1125 38.3081 18.9208 37.1587C20.1729 36.6461 21.6411 35.0786 22.356 33.9256C23.1945 32.5732 22.9422 31.2381 22.5571 29.8011L18.2489 13.7249C17.8208 12.1273 17.4601 10.2164 15.726 9.58614Z"/>
<path d="M26.1626 20.6088C28.1091 20.7361 30.056 21.2578 31.8054 22.1208C33.2378 22.8274 33.5115 23.8187 32.6283 25.152C31.5562 26.7704 30.1312 28.1794 28.5155 29.2537C27.1586 30.1559 26.1693 29.8908 25.4453 28.431C24.5832 26.6928 24.0536 24.7601 23.9344 22.8224C23.8361 21.2262 24.5688 20.5046 26.1626 20.6088Z"/>
</svg>
