<svg width="77" height="77" viewBox="0 0 77 77" fill="none" xmlns="http://www.w3.org/2000/svg">
<path fill-rule="evenodd" clip-rule="evenodd" d="M43.0055 2.75C49.4858 2.74998 54.5279 2.74996 58.4538 3.27431C62.4573 3.80903 65.5609 4.91753 67.9887 7.32938C70.4166 9.74124 71.5324 12.8245 72.0707 16.8016C72.5985 20.7017 72.5985 25.7107 72.5984 32.1483V44.8517C72.5985 51.2893 72.5985 56.2983 72.0707 60.1984C71.5324 64.1756 70.4166 67.2588 67.9887 69.6706C65.5609 72.0825 62.4573 73.191 58.4538 73.7257C54.5279 74.2501 49.4858 74.25 43.0056 74.25H33.9913C27.5111 74.25 22.469 74.2501 18.5431 73.7257C14.5396 73.191 11.4359 72.0825 9.00813 69.6706C6.58031 67.2588 5.46448 64.1756 4.92622 60.1984C4.39839 56.2982 4.39841 51.2893 4.39844 44.8517L4.39844 32.1483C4.39841 25.7107 4.39839 20.7018 4.92622 16.8016C5.46448 12.8245 6.58031 9.74124 9.00813 7.32938C11.4359 4.91753 14.5396 3.80903 18.5431 3.27431C22.469 2.74996 27.5111 2.74998 33.9913 2.75H43.0055Z" fill="#052D44"/>
<path d="M6.05078 32.4633C6.05078 19.2334 6.05078 12.6184 10.1608 8.50844C14.2708 4.39844 20.8857 4.39844 34.1156 4.39844H42.8859C56.1158 4.39844 62.7308 4.39844 66.8408 8.50844C70.9508 12.6184 70.9508 19.2334 70.9508 32.4633V41.2336C70.9508 54.4635 70.9508 61.0784 66.8408 65.1884C62.7308 69.2984 56.1158 69.2984 42.8859 69.2984H34.1156C20.8857 69.2984 14.2708 69.2984 10.1608 65.1884C6.05078 61.0784 6.05078 54.4635 6.05078 41.2336V32.4633Z" fill="white"/>
<path d="M38.4996 41.8011C41.2334 41.8011 43.4496 39.5849 43.4496 36.8511C43.4496 34.1173 41.2334 31.9011 38.4996 31.9011C35.7657 31.9011 33.5496 34.1173 33.5496 36.8511C33.5496 39.5849 35.7657 41.8011 38.4996 41.8011Z" fill="#052D44"/>
<path fill-rule="evenodd" clip-rule="evenodd" d="M60.421 36.8511C60.421 48.958 50.6064 58.7725 38.4996 58.7725C26.3927 58.7725 16.5781 48.958 16.5781 36.8511C16.5781 24.7442 26.3927 14.9297 38.4996 14.9297C50.6064 14.9297 60.421 24.7442 60.421 36.8511ZM51.4891 23.7829C50.4827 22.7765 48.4535 23.6259 44.395 25.3248L36.6529 28.5657C34.5746 29.4357 33.5355 29.8706 32.7549 30.6426C31.9743 31.4145 31.5277 32.4487 30.6345 34.5171L27.1818 42.5129C25.3881 46.6666 24.4913 48.7434 25.5099 49.762C26.5285 50.7806 28.6054 49.8838 32.759 48.0902L40.7549 44.6374C42.8232 43.7442 43.8574 43.2977 44.6293 42.517C45.4013 41.7364 45.8363 40.6973 46.7062 38.6191L49.9471 30.8769C51.646 26.8185 52.4955 24.7892 51.4891 23.7829Z" fill="#052D44"/>
</svg>
