<svg width="46" height="46" viewBox="0 0 46 46" fill="none" xmlns="http://www.w3.org/2000/svg">
<path fill-rule="evenodd" clip-rule="evenodd" d="M25.6929 1.64453C29.5642 1.64452 32.5764 1.6445 34.9217 1.95776C37.3134 2.2772 39.1675 2.93942 40.6179 4.38027C42.0683 5.82112 42.7349 7.66304 43.0565 10.039C43.3718 12.369 43.3718 15.3613 43.3718 19.2071V26.7962C43.3718 30.642 43.3718 33.6344 43.0565 35.9643C42.7349 38.3403 42.0683 40.1822 40.6179 41.6231C39.1675 43.0639 37.3134 43.7262 34.9217 44.0456C32.5764 44.3588 29.5642 44.3588 25.6929 44.3588H20.3077C16.4365 44.3588 13.4243 44.3588 11.079 44.0456C8.68724 43.7262 6.83313 43.0639 5.38275 41.6231C3.93236 40.1822 3.26576 38.3403 2.9442 35.9643C2.62888 33.6344 2.62889 30.642 2.62891 26.7962L2.62891 19.2072C2.62889 15.3613 2.62888 12.369 2.9442 10.039C3.26576 7.66304 3.93236 5.82112 5.38275 4.38027C6.83313 2.93942 8.68724 2.2772 11.079 1.95776C13.4243 1.6445 16.4365 1.64452 20.3078 1.64453H25.6929Z" fill="#052D44"/>
<path d="M3.61523 19.3949C3.61523 11.4914 3.61523 7.53956 6.07056 5.08423C8.52589 2.62891 12.4777 2.62891 20.3813 2.62891H25.6206C33.5242 2.62891 37.476 2.62891 39.9313 5.08423C42.3867 7.53956 42.3867 11.4914 42.3867 19.3949V24.6343C42.3867 32.5379 42.3867 36.4897 39.9313 38.945C37.476 41.4003 33.5242 41.4003 25.6206 41.4003H20.3813C12.4777 41.4003 8.52589 41.4003 6.07056 38.945C3.61523 36.4897 3.61523 32.5379 3.61523 24.6343V19.3949Z" fill="white"/>
<path fill-rule="evenodd" clip-rule="evenodd" d="M24.2681 13.3254C24.2681 13.2049 24.2681 13.1447 24.2938 13.0975C24.3195 13.0502 24.3762 13.0136 24.4895 12.9404C25.246 12.4513 25.7467 11.6005 25.7467 10.6326C25.7467 9.11611 24.5173 7.88672 23.0008 7.88672C21.4843 7.88672 20.2549 9.11611 20.2549 10.6326C20.2549 11.6005 20.7556 12.4513 21.5121 12.9404C21.6254 13.0136 21.682 13.0502 21.7077 13.0975C21.7334 13.1447 21.7334 13.2049 21.7334 13.3254V13.5898C21.7334 13.7889 21.7334 13.8885 21.6716 13.9504C21.6097 14.0122 21.5101 14.0122 21.311 14.0122H20.8885C16.9057 14.0122 14.9142 14.0122 13.6769 15.2496C12.7488 16.1776 12.5169 17.53 12.4589 19.8288C12.4539 20.025 12.4515 20.1231 12.3909 20.1829C12.3304 20.2427 12.2321 20.2441 12.0355 20.2468C10.9766 20.2613 10.3781 20.3376 9.97735 20.7383C9.48242 21.2332 9.48242 22.0298 9.48242 23.6229V26.052C9.48242 27.6452 9.48242 28.4418 9.97735 28.9367C10.3763 29.3357 10.9714 29.413 12.0217 29.428C12.2203 29.4308 12.3195 29.4323 12.3801 29.4929C12.4408 29.5535 12.4422 29.6526 12.445 29.8507C12.4676 31.424 12.5839 32.3157 13.182 32.9137C13.9244 33.6561 15.1192 33.6561 17.509 33.6561H28.4926C30.8824 33.6561 32.0772 33.6561 32.8196 32.9137C33.4177 32.3157 33.5339 31.424 33.5566 29.8507C33.5594 29.6526 33.5608 29.5535 33.6214 29.4929C33.6821 29.4323 33.7813 29.4308 33.9798 29.428C35.0302 29.413 35.6252 29.3357 36.0242 28.9367C36.5192 28.4418 36.5192 27.6452 36.5192 26.052V23.6229C36.5192 22.0298 36.5192 21.2332 36.0242 20.7383C35.6235 20.3376 35.025 20.2613 33.9661 20.2468C33.7695 20.2441 33.6711 20.2427 33.6106 20.1829C33.5501 20.1231 33.5476 20.025 33.5427 19.8288C33.4847 17.53 33.2528 16.1776 32.3247 15.2496C31.0874 14.0122 29.0959 14.0122 25.113 14.0122H24.6906C24.4914 14.0122 24.3919 14.0122 24.33 13.9504C24.2681 13.8885 24.2681 13.7889 24.2681 13.5898V13.3254ZM29.8656 24.8375C29.8656 26.6165 28.4234 28.0587 26.6444 28.0587C24.8654 28.0587 23.4232 26.6165 23.4232 24.8375C23.4232 23.0585 24.8654 21.6163 26.6444 21.6163C28.4234 21.6163 29.8656 23.0585 29.8656 24.8375ZM19.3572 28.0587C21.1362 28.0587 22.5783 26.6165 22.5783 24.8375C22.5783 23.0585 21.1362 21.6163 19.3572 21.6163C17.5782 21.6163 16.136 23.0585 16.136 24.8375C16.136 26.6165 17.5782 28.0587 19.3572 28.0587Z" fill="#052D44"/>
</svg>
