<svg width="72" height="72" viewBox="0 0 72 72" fill="none" xmlns="http://www.w3.org/2000/svg">
<path fill-rule="evenodd" clip-rule="evenodd" d="M40.2134 2.57031C46.2729 2.57029 50.9876 2.57027 54.6585 3.06058C58.4021 3.56058 61.3042 4.59709 63.5743 6.85233C65.8445 9.10758 66.8879 11.9906 67.3912 15.7095C67.8847 19.3564 67.8847 24.04 67.8847 30.0596V41.9382C67.8847 47.9577 67.8847 52.6414 67.3912 56.2883C66.8879 60.0072 65.8445 62.8902 63.5743 65.1454C61.3042 67.4007 58.4021 68.4372 54.6585 68.9372C50.9876 69.4275 46.2729 69.4275 40.2135 69.4275H31.7845C25.7251 69.4275 21.0104 69.4275 17.3394 68.9372C13.5959 68.4372 10.6938 67.4007 8.42364 65.1454C6.15347 62.8902 5.1101 60.0072 4.60679 56.2883C4.11324 52.6414 4.11326 47.9577 4.11328 41.9381L4.11328 30.0597C4.11326 24.0401 4.11324 19.3564 4.60679 15.7095C5.1101 11.9906 6.15347 9.10758 8.42364 6.85233C10.6938 4.59709 13.5959 3.56058 17.3394 3.06058C21.0104 2.57027 25.7251 2.57029 31.7846 2.57031H40.2134Z" fill="#052D44"/>
<path d="M5.65625 30.3557C5.65625 17.9849 5.65625 11.7995 9.49937 7.9564C13.3425 4.11328 19.5279 4.11328 31.8987 4.11328H40.0995C52.4703 4.11328 58.6557 4.11328 62.4988 7.9564C66.342 11.7995 66.342 17.9849 66.342 30.3558V38.5565C66.342 50.9273 66.342 57.1127 62.4988 60.9559C58.6557 64.799 52.4703 64.799 40.0995 64.799H31.8987C19.5279 64.799 13.3425 64.799 9.49937 60.9559C5.65625 57.1127 5.65625 50.9273 5.65625 38.5565V30.3557Z" fill="white"/>
<path d="M30.5418 34.1237C30.5418 35.8583 29.1356 37.2645 27.401 37.2645C25.6663 37.2645 24.2602 35.8583 24.2602 34.1237C24.2602 32.389 25.6663 30.9828 27.401 30.9828C29.1356 30.9828 30.5418 32.389 30.5418 34.1237Z" fill="#052D44"/>
<path d="M39.6336 37.2645C41.3683 37.2645 42.7744 35.8583 42.7744 34.1237C42.7744 32.389 41.3683 30.9828 39.6336 30.9828C37.899 30.9828 36.4928 32.389 36.4928 34.1237C36.4928 35.8583 37.899 37.2645 39.6336 37.2645Z" fill="#052D44"/>
<path fill-rule="evenodd" clip-rule="evenodd" d="M50.9813 36.1896C49.6935 49.4605 42.9576 54.9522 33.6826 54.9522C23.344 54.9522 16.1602 48.1287 16.1602 31.3135C16.1602 20.4492 24.0052 15.6094 33.6826 15.6094C39.1081 15.6094 43.9577 17.1306 47.1718 20.3818C47.3063 20.5179 47.5276 20.5178 47.6602 20.3798C47.7634 20.2723 47.8676 20.1659 47.9724 20.061C49.3084 18.725 50.6949 17.7274 51.4079 17.2481C51.6269 17.1009 51.7365 17.0273 51.943 17.0302C52.1496 17.0331 52.2345 17.0937 52.4044 17.2148C52.9431 17.5991 53.8518 18.4739 54.84 20.3988C55.774 22.2181 56.1824 23.7265 56.3601 24.6513C56.4427 25.0811 56.484 25.296 56.3646 25.5075C56.2453 25.7189 56.0138 25.8042 55.5509 25.9748C54.5326 26.3501 53.5278 26.7638 52.5413 27.2166C52.2751 27.3387 52.2928 27.7218 52.5654 27.8288C53.342 28.1337 54.3004 28.5484 55.3314 29.0819C55.6278 29.2353 55.8888 29.3697 56.1227 29.4903L56.1256 29.4917L56.1264 29.4922C57.0525 29.9693 57.5541 30.2278 58.1583 30.5795C58.567 30.8174 58.7714 30.9363 58.8534 31.1606C58.9354 31.3849 58.8585 31.6004 58.7047 32.0315C58.424 32.8183 57.9508 33.9914 57.283 35.1369C56.6993 36.1382 56.0504 36.9935 55.5509 37.5951C55.19 38.0296 55.0096 38.2469 54.738 38.2727C54.4664 38.2986 54.2305 38.1048 53.7587 37.7173C52.83 36.9543 52.0316 36.309 51.4966 35.9406C51.2891 35.7977 51.0057 35.9389 50.9813 36.1896ZM25.3499 28.2309C22.3122 28.5863 19.7969 31.053 19.7969 34.2536C19.7969 37.4492 22.2255 39.6032 25.2631 39.5786C30.843 39.3399 36.366 39.3399 42.0137 39.572C45.1382 39.6032 47.5683 37.4492 47.5683 34.2536C47.5683 31.053 45.0514 28.5863 42.0137 28.2309C36.366 27.492 30.9219 27.492 25.3499 28.2309Z" fill="#052D44"/>
</svg>
