<svg width="72" height="72" viewBox="0 0 72 72" fill="none" xmlns="http://www.w3.org/2000/svg">
<path d="M26.0962 63.0769C28.5865 66.4766 30.9705 69.4275 35.9962 69.4275C41.0219 69.4275 43.4059 66.4766 45.8962 63.0769C50.7565 56.4417 62.8003 36.7703 69.7111 15.5702C70.5437 13.0161 70.8464 10.6108 69.7111 8.74174C68.6109 6.85411 66.7651 6.02087 63.8313 5.39888C53.522 3.21325 45.0975 2.5703 35.9962 2.57031C26.8949 2.5703 18.4704 3.21325 8.16113 5.39888C5.22734 6.02087 3.38148 6.85411 2.28132 8.74174C1.14606 10.6108 1.44873 13.0161 2.28132 15.5702C9.19208 36.7703 21.2359 56.4417 26.0962 63.0769Z" fill="#052D44"/>
<path fill-rule="evenodd" clip-rule="evenodd" d="M32.4252 62.9033C33.8193 64.3196 34.8611 64.799 35.9939 64.799C37.1268 64.799 38.1686 64.3196 39.5627 62.9033C51.2414 51.0384 63.5507 29.6006 68.0333 13.6255C68.5838 11.6638 68.4768 10.5025 67.8998 9.51664C67.3081 8.50568 66.3324 7.80482 64.3762 7.2818C48.5752 3.05711 23.4127 3.05711 7.61167 7.2818C5.6555 7.80482 4.67982 8.50568 4.0881 9.51664C3.51108 10.5025 3.40411 11.6638 3.95458 13.6255C8.43722 29.6006 20.7465 51.0384 32.4252 62.9033Z" fill="white"/>
<path d="M50.3395 25.1252C51.9378 25.5534 53.7478 26.1763 55.1253 24.9315C56.7492 23.4641 57.5549 18.842 56.8018 16.8102C55.9878 14.6138 53.9071 13.9882 51.815 13.4514C48.1091 12.5006 42.3275 11.5765 36.1763 11.5722C33.9048 11.5706 30.5531 11.414 30.1852 14.3546C30.0249 15.6354 30.6106 17.5637 31.2146 18.7085C31.9386 20.0806 33.184 20.5296 34.5841 20.9047L50.3395 25.1252Z" fill="#052D44"/>
<path d="M31.5178 41.6548C30.3756 42.7968 28.9889 44.0207 29.3355 45.788C29.7636 47.9708 33.4458 51.0355 35.5941 51.3733C37.9075 51.7371 39.4893 50.2037 41.0029 48.6635C43.6949 45.9242 47.3742 41.4352 50.4587 36.1398C51.5933 34.192 53.3824 31.4209 51.0802 29.6191C50.0321 28.7989 47.9618 28.3162 46.6279 28.277C45.0769 28.2316 44.0746 29.0986 43.0486 30.1246L31.5178 41.6548Z" fill="#052D44"/>
<path d="M24.1987 13.1168C22.0638 12.3409 17.4487 14.039 16.0746 15.7975C14.6633 17.6035 15.1912 19.7062 15.753 21.7516C16.7652 25.4368 18.8258 30.8567 21.8939 36.1398C23.036 38.1066 24.5756 41.1204 27.314 39.9997C28.535 39.5 29.9666 37.9717 30.6637 36.8475C31.4814 35.529 31.2354 34.2273 30.8598 32.8262L26.6588 17.152C26.2414 15.5944 25.8896 13.7313 24.1987 13.1168Z" fill="#052D44"/>
<path d="M34.3756 23.8638C36.2736 23.9879 38.1721 24.4965 39.8779 25.338C41.2747 26.0269 41.5416 26.9934 40.6803 28.2933C39.6349 29.8712 38.2454 31.245 36.6699 32.2925C35.3468 33.1721 34.3821 32.9136 33.6761 31.4904C32.8355 29.7956 32.3191 27.9112 32.2028 26.0221C32.107 24.4657 32.8214 23.7622 34.3756 23.8638Z" fill="#052D44"/>
</svg>
