<svg width="36" height="27" viewBox="0 0 36 27" fill="none" xmlns="http://www.w3.org/2000/svg">
<g filter="url(#filter0_d_580_3441)">
<path d="M33.9876 7.95985L32.0966 19.729C32.0277 20.1574 31.5712 20.4631 31.063 20.4212L2.85819 18.0957C2.34209 18.0532 1.96157 17.6682 2.0031 17.2306L3.13945 5.14252C3.21086 4.48253 3.97856 4.27597 4.50821 4.74451L8.34542 8.2243C8.68471 8.53547 9.25087 8.57069 9.64023 8.30483L18.6131 2.17833C19.037 1.88893 19.6608 1.95965 19.9798 2.33325L26.1853 9.60134C26.4677 9.93209 26.9979 10.0314 27.4188 9.83243L32.8716 7.25846C33.4634 6.97576 34.0975 7.33719 33.9876 7.95985Z" fill="#FFC90B"/>
<path d="M33.084 19.8877L33.0839 19.8879C32.9115 20.9601 31.8694 21.491 30.9808 21.4178L2.77602 19.0923C1.86736 19.0174 0.899717 18.2782 1.00749 17.137C1.0075 17.1369 1.00752 17.1367 1.00753 17.1366C1.00754 17.1364 1.00756 17.1363 1.00757 17.1361L2.14384 5.04893L2.14515 5.03493L2.14525 5.03494C2.22646 4.28445 2.73506 3.74052 3.37971 3.5581C3.99796 3.38315 4.66988 3.55241 5.17079 3.99552L5.18003 4.00369L5.17998 4.00375L9.01179 7.47864C9.01671 7.48021 9.02502 7.48219 9.03613 7.48288C9.05005 7.48374 9.06247 7.48222 9.07128 7.47994C9.07492 7.479 9.07717 7.47814 9.07822 7.4777L18.0492 1.35247M33.084 19.8877L18.0492 1.35247M33.084 19.8877L34.9739 8.12468C35.0968 7.40805 34.7782 6.75891 34.2118 6.41492C33.6766 6.0899 33.0111 6.08449 32.443 6.35498C32.4422 6.35536 32.4414 6.35575 32.4406 6.35613L26.9919 8.92812L26.9914 8.92838C26.9885 8.92976 26.9814 8.93244 26.9699 8.93381C26.9581 8.93521 26.9456 8.93475 26.9343 8.93264C26.932 8.93221 26.9299 8.93174 26.9281 8.93129L20.7403 1.68393L19.9838 2.32981L20.7403 1.68393C20.0671 0.895463 18.8655 0.795147 18.0492 1.35247M33.084 19.8877L18.0492 1.35247" stroke="#052D44" stroke-width="2"/>
</g>
<defs>
<filter id="filter0_d_580_3441" x="0" y="0" width="36" height="26.4258" filterUnits="userSpaceOnUse" color-interpolation-filters="sRGB">
<feFlood flood-opacity="0" result="BackgroundImageFix"/>
<feColorMatrix in="SourceAlpha" type="matrix" values="0 0 0 0 0 0 0 0 0 0 0 0 0 0 0 0 0 0 127 0" result="hardAlpha"/>
<feOffset dy="4"/>
<feComposite in2="hardAlpha" operator="out"/>
<feColorMatrix type="matrix" values="0 0 0 0 0.0196078 0 0 0 0 0.176471 0 0 0 0 0.266667 0 0 0 1 0"/>
<feBlend mode="normal" in2="BackgroundImageFix" result="effect1_dropShadow_580_3441"/>
<feBlend mode="normal" in="SourceGraphic" in2="effect1_dropShadow_580_3441" result="shape"/>
</filter>
</defs>
</svg>
