<svg width="72" height="72" viewBox="0 0 72 72" fill="none" xmlns="http://www.w3.org/2000/svg">
<path fill-rule="evenodd" clip-rule="evenodd" d="M40.2134 2.57031C46.2729 2.57029 50.9876 2.57027 54.6586 3.06058C58.4021 3.56058 61.3042 4.59709 63.5744 6.85233C65.8445 9.10758 66.8879 11.9906 67.3912 15.7095C67.8848 19.3564 67.8847 24.04 67.8847 30.0596V41.9382C67.8847 47.9577 67.8848 52.6414 67.3912 56.2883C66.8879 60.0072 65.8445 62.8902 63.5744 65.1454C61.3042 67.4007 58.4021 68.4372 54.6586 68.9372C50.9876 69.4275 46.2729 69.4275 40.2135 69.4275H31.7845C25.7251 69.4275 21.0104 69.4275 17.3394 68.9372C13.5959 68.4372 10.6938 67.4007 8.42364 65.1454C6.15347 62.8902 5.1101 60.0072 4.60679 56.2883C4.11324 52.6414 4.11326 47.9577 4.11328 41.9381L4.11328 30.0597C4.11326 24.0401 4.11324 19.3564 4.60679 15.7095C5.1101 11.9906 6.15347 9.10758 8.42364 6.85233C10.6938 4.59709 13.5959 3.56058 17.3394 3.06058C21.0104 2.57027 25.7251 2.57029 31.7846 2.57031H40.2134Z" fill="#052D44"/>
<path d="M5.65625 30.3558C5.65625 17.9849 5.65625 11.7995 9.49937 7.9564C13.3425 4.11328 19.5279 4.11328 31.8987 4.11328H40.0995C52.4703 4.11328 58.6557 4.11328 62.4988 7.9564C66.342 11.7995 66.342 17.9849 66.342 30.3558V38.5565C66.342 50.9273 66.342 57.1128 62.4988 60.9559C58.6557 64.799 52.4703 64.799 40.0995 64.799H31.8987C19.5279 64.799 13.3425 64.799 9.49937 60.9559C5.65625 57.1128 5.65625 50.9273 5.65625 38.5565V30.3558Z" fill="white"/>
<path d="M35.3389 25.4198C35.3389 28.7064 32.6745 31.3708 29.3879 31.3708C26.1012 31.3708 23.4368 28.7064 23.4368 25.4198C23.4368 22.1331 26.1012 19.4688 29.3879 19.4688C32.6745 19.4688 35.3389 22.1331 35.3389 25.4198Z" fill="#052D44"/>
<path d="M24.7593 33.6851C24.7593 36.6065 22.391 38.9749 19.4695 38.9749C16.548 38.9749 14.1797 36.6065 14.1797 33.6851C14.1797 30.7636 16.548 28.3953 19.4695 28.3953C22.391 28.3953 24.7593 30.7636 24.7593 33.6851Z" fill="#052D44"/>
<path d="M23.8753 51.2415C26.9803 53.3257 29.2803 52.4584 31.6202 51.5761C32.9077 51.0907 34.2072 50.6007 35.6595 50.5953C37.2169 50.5896 38.5951 51.0848 39.9589 51.5748C42.4049 52.4537 44.8044 53.3159 48.1076 51.2415C53.2526 48.0105 48.9378 31.3708 35.6595 31.3708C22.3813 31.3708 19.0618 48.0105 23.8753 51.2415Z" fill="#052D44"/>
<path d="M52.5307 38.9749C55.4522 38.9749 57.8205 36.6065 57.8205 33.6851C57.8205 30.7636 55.4522 28.3953 52.5307 28.3953C49.6092 28.3953 47.2409 30.7636 47.2409 33.6851C47.2409 36.6065 49.6092 38.9749 52.5307 38.9749Z" fill="#052D44"/>
<path d="M42.6123 31.3708C45.899 31.3708 48.5634 28.7064 48.5634 25.4198C48.5634 22.1331 45.899 19.4688 42.6123 19.4688C39.3257 19.4688 36.6613 22.1331 36.6613 25.4198C36.6613 28.7064 39.3257 31.3708 42.6123 31.3708Z" fill="#052D44"/>
</svg>
