<svg width="72" height="72" viewBox="0 0 72 72" fill="none" xmlns="http://www.w3.org/2000/svg">
<path fill-rule="evenodd" clip-rule="evenodd" d="M40.2134 2.57031C46.2729 2.57029 50.9876 2.57027 54.6586 3.06058C58.4021 3.56058 61.3042 4.59709 63.5744 6.85233C65.8445 9.10758 66.8879 11.9906 67.3912 15.7095C67.8848 19.3564 67.8847 24.04 67.8847 30.0596V41.9382C67.8847 47.9577 67.8848 52.6414 67.3912 56.2883C66.8879 60.0072 65.8445 62.8902 63.5744 65.1454C61.3042 67.4007 58.4021 68.4372 54.6586 68.9372C50.9876 69.4275 46.2729 69.4275 40.2135 69.4275H31.7845C25.7251 69.4275 21.0104 69.4275 17.3394 68.9372C13.5959 68.4372 10.6938 67.4007 8.42364 65.1454C6.15347 62.8902 5.1101 60.0072 4.60679 56.2883C4.11324 52.6414 4.11326 47.9577 4.11328 41.9381L4.11328 30.0597C4.11326 24.0401 4.11324 19.3564 4.60679 15.7095C5.1101 11.9906 6.15347 9.10758 8.42364 6.85233C10.6938 4.59709 13.5959 3.56058 17.3394 3.06058C21.0104 2.57027 25.7251 2.57029 31.7846 2.57031H40.2134Z" fill="#052D44"/>
<path d="M5.65625 30.3558C5.65625 17.9849 5.65625 11.7995 9.49937 7.9564C13.3425 4.11328 19.5279 4.11328 31.8987 4.11328H40.0995C52.4703 4.11328 58.6557 4.11328 62.4988 7.9564C66.342 11.7995 66.342 17.9849 66.342 30.3558V38.5565C66.342 50.9273 66.342 57.1128 62.4988 60.9559C58.6557 64.799 52.4703 64.799 40.0995 64.799H31.8987C19.5279 64.799 13.3425 64.799 9.49937 60.9559C5.65625 57.1128 5.65625 50.9273 5.65625 38.5565V30.3558Z" fill="white"/>
<g clip-path="url(#clip0_580_2317)">
<path d="M46.9453 20.7111C46.9453 19.2346 46.9453 18.4964 47.3855 18.0235C47.4188 17.9904 47.452 17.9572 47.4852 17.924C47.9586 17.4844 48.6979 17.4844 50.1763 17.4844C51.5219 17.4844 52.1947 17.4844 52.6598 17.8659C52.693 17.8908 52.7262 17.924 52.7595 17.9572C53.1914 18.3802 53.2578 19.0438 53.399 20.3793L53.5651 22.0051C53.7396 23.7056 53.8309 24.5599 53.3409 25.1074C52.8425 25.6549 51.987 25.6549 50.276 25.6549C48.7145 25.6549 47.9337 25.6549 47.452 25.1738C46.9702 24.6844 46.9702 23.9129 46.9702 22.3535V20.7194L46.9453 20.7111Z" fill="#052D44"/>
<path d="M40.8991 17.4844C42.469 17.4844 43.2497 17.4844 43.7315 17.9738C44.2215 18.4632 44.2215 19.2429 44.2215 20.8023V22.3452C44.2215 23.9129 44.2215 24.6927 43.7315 25.1738C43.2414 25.6632 42.4607 25.6632 40.8991 25.6632H40.7247C39.1549 25.6632 38.3741 25.6632 37.8924 25.1738C37.4106 24.6844 37.4023 23.9047 37.4023 22.3452V20.8023C37.4023 19.2346 37.4023 18.4549 37.8924 17.9738C38.3824 17.4844 39.1632 17.4844 40.7247 17.4844H40.8991Z" fill="#052D44"/>
<path d="M34.6707 20.8023C34.6707 19.2346 34.6707 18.4549 34.1807 17.9738C33.6906 17.4844 32.9099 17.4844 31.3484 17.4844H31.1739C29.6041 17.4844 28.8234 17.4844 28.3416 17.9738C27.8516 18.4632 27.8516 19.2429 27.8516 20.8023V31.8844C27.8516 33.4521 27.8516 34.2318 28.3416 34.7129C28.8317 35.2023 29.6124 35.2023 31.1739 35.2023H31.3484C32.9182 35.2023 33.6989 35.2023 34.1807 34.7129C34.6624 34.2235 34.6707 33.4438 34.6707 31.8844V20.8023Z" fill="#052D44"/>
<path d="M18.8725 20.2885C19.0054 19.036 19.0635 18.4139 19.4456 18.0074C19.5121 17.9411 19.5785 17.8747 19.6533 17.8167C20.1018 17.4766 20.7247 17.4766 21.9872 17.4766C23.366 17.4766 24.0637 17.4766 24.5205 17.8581C24.5953 17.9245 24.6701 17.9908 24.7282 18.0655C25.1103 18.53 25.1103 19.2185 25.1103 20.5955V31.8683C25.1103 33.436 25.1103 34.2157 24.6202 34.6968C24.1302 35.1779 23.3494 35.1862 21.7879 35.1862H21.0071C19.2878 35.1862 18.424 35.1862 17.9339 34.6388C17.4356 34.0913 17.5269 33.2369 17.7014 31.5282L18.8725 20.2885Z" fill="#052D44"/>
<path d="M40.7141 28.3828C39.1443 28.3828 38.3635 28.3828 37.8818 28.8722C37.3917 29.3616 37.3917 30.1413 37.3917 31.7008V31.875C37.3917 33.4427 37.3917 34.2224 37.8818 34.7035C38.3718 35.1929 39.1526 35.1929 40.7141 35.1929H42.8487C43.6046 35.1929 44.2109 35.8068 44.2109 36.5533C44.2109 37.2999 43.5962 37.9137 42.8487 37.9137H19.4841C19.0688 37.9137 18.8612 37.9137 18.6867 37.9552C18.1136 38.0796 17.6485 38.5026 17.4658 39.0584C17.4076 39.2326 17.391 39.4317 17.3495 39.8464C17.2581 40.7257 17.2166 41.1653 17.2415 41.58C17.3246 42.9072 17.9392 44.1432 18.9359 45.0224C19.2432 45.2962 19.6253 45.5284 20.3811 45.9929L30.8051 52.4132C33.355 53.981 34.6258 54.769 36.0378 54.769C37.4499 54.769 38.7207 53.981 41.2706 52.4132L49.8174 47.1459C52.4089 45.5533 53.7046 44.757 54.3358 43.4713C54.9671 42.1856 54.8093 40.6759 54.5019 37.6565L53.8541 31.3607C53.7046 29.9423 53.6381 29.2372 53.1564 28.8141C52.6829 28.3911 51.9686 28.3911 50.5483 28.3911H40.7307L40.7141 28.3828Z" fill="#052D44"/>
</g>
<defs>
<clipPath id="clip0_580_2317">
<rect width="37.5429" height="37.2857" fill="white" transform="translate(17.2266 17.4844)"/>
</clipPath>
</defs>
</svg>
