<svg width="56" height="56" viewBox="0 0 56 56" xmlns="http://www.w3.org/2000/svg">
<path d="M13.4062 5.1342C12.7742 4.89945 12.3994 4.96001 11.8918 5.41658C9.38397 7.67261 9.22528 11.4768 10.8838 14.2002C11.2895 14.8665 11.3526 15.2076 10.999 15.9122C10.7523 16.4037 10.5414 16.4248 10.209 15.9899C9.08479 14.5194 7.42276 13.4535 5.45576 13.2562C4.79025 13.1895 4.44301 13.3361 4.07066 13.9126C1.8078 17.4156 3.67884 22.316 7.36067 23.9837C8.36511 24.4387 8.59883 24.6636 8.57206 25.7981C8.55974 26.32 8.41905 26.4173 7.93301 26.2773C5.78343 25.6581 3.37598 25.9316 1.55849 27.3857C1.03645 27.8034 0.906231 28.146 1.06112 28.8104C1.85482 32.2148 5.40124 34.3096 8.76135 34.0962C8.80593 34.0934 8.85047 34.0901 8.89489 34.0869C9.33791 34.0547 9.76796 34.0234 10.0871 34.4084C10.1704 34.5089 10.2543 34.6917 10.4222 35.0574C10.594 35.4317 10.4976 35.5965 10.1132 35.6926C7.98506 36.2247 6.09738 37.628 5.28717 39.7462C5.04402 40.3819 5.12665 40.7399 5.58717 41.2282C7.76962 43.5425 11.3306 43.847 14.0538 42.5548C15.157 42.0313 15.958 42.2583 16.7258 42.8386C17.2867 43.2723 17.2944 43.3055 16.7715 43.8309C15.283 45.3266 14.4299 47.4157 14.8049 49.5953C14.9217 50.2741 15.1847 50.541 15.8218 50.7376C20.0542 52.0437 25.3934 48.2807 24.9771 43.7411C24.9267 43.1921 24.9016 42.9176 24.616 42.492C24.3305 42.0664 23.9294 41.8638 23.1271 41.4587C19.7216 39.7388 14.9049 36.3008 13.5852 29.7801C12.5265 24.5491 14.1435 19.2627 16.1338 16.3711C18.2777 13.2562 19.2503 7.30485 13.4062 5.1342Z" />
<path d="M42.5938 5.1342C43.2258 4.89945 43.6006 4.96001 44.1082 5.41658C46.616 7.67261 46.7747 11.4768 45.1162 14.2002C44.7105 14.8665 44.6474 15.2076 45.001 15.9122C45.2477 16.4037 45.4586 16.4248 45.791 15.9899C46.9152 14.5194 48.5772 13.4535 50.5442 13.2562C51.2098 13.1895 51.557 13.3361 51.9293 13.9126C54.1922 17.4156 52.3212 22.316 48.6393 23.9837C47.6349 24.4387 47.4012 24.6636 47.4279 25.7981C47.4403 26.32 47.581 26.4173 48.067 26.2773C50.2166 25.6581 52.624 25.9316 54.4415 27.3857C54.9636 27.8034 55.0938 28.146 54.9389 28.8104C54.1452 32.2148 50.5988 34.3096 47.2386 34.0962C47.1941 34.0934 47.1495 34.0901 47.1051 34.0869C46.6621 34.0547 46.232 34.0234 45.9129 34.4084C45.8296 34.5089 45.7457 34.6917 45.5778 35.0574C45.406 35.4317 45.5024 35.5965 45.8868 35.6926C48.0149 36.2247 49.9026 37.628 50.7128 39.7462C50.956 40.3819 50.8734 40.7399 50.4128 41.2282C48.2304 43.5425 44.6694 43.847 41.9462 42.5548C40.843 42.0313 40.042 42.2583 39.2742 42.8386C38.7133 43.2723 38.7056 43.3055 39.2285 43.8309C40.717 45.3266 41.5701 47.4157 41.1951 49.5953C41.0783 50.2741 40.8153 50.541 40.1782 50.7376C35.9458 52.0437 30.6066 48.2807 31.0229 43.7411C31.0733 43.1921 31.0984 42.9176 31.384 42.492C31.6695 42.0664 32.0706 41.8638 32.8729 41.4587C36.2784 39.7388 41.0951 36.3008 42.4148 29.7801C43.4735 24.5491 41.8565 19.2627 39.8662 16.3711C37.7223 13.2562 36.7497 7.30485 42.5938 5.1342Z" />
<path d="M37.6914 33.4334L38.9914 23.852C39.067 23.3451 38.6311 23.0508 38.2242 23.281L34.4754 25.3765C34.1861 25.5385 33.8216 25.4576 33.6274 25.1883L29.3611 19.2713C29.1418 18.9671 28.7129 18.9096 28.4215 19.1452L22.2527 24.1328C21.985 24.3493 21.5957 24.3206 21.3625 24.0673L18.7244 21.2343C18.3603 20.8529 17.8325 21.0211 17.7834 21.5584L17.0021 31.3994C16.9736 31.7556 17.2352 32.0691 17.59 32.1037L36.9808 33.9969C37.3302 34.031 37.6441 33.7822 37.6914 33.4334Z" />
</svg>
