<svg width="56" height="56" viewBox="0 0 56 56" fill="none" xmlns="http://www.w3.org/2000/svg">
<g clip-path="url(#clip0_593_2561)">
<path d="M4.71482 12.973C4.71482 13.8014 5.38148 14.4681 6.71482 15.8014L17.6749 26.7615C18.3416 27.4282 18.675 27.7615 18.675 28.1758C18.675 28.59 18.3416 28.9233 17.6749 29.59L6.71479 40.5501C5.38146 41.8835 4.71479 42.5501 4.7148 43.3786C4.71479 44.207 5.38146 44.8736 6.71479 46.207L9.54322 49.0354C10.8766 50.3687 11.5432 51.0354 12.3716 51.0354C13.2001 51.0354 13.8667 50.3687 15.2001 49.0354L26.1602 38.0753C26.8269 37.4086 27.1602 37.0753 27.5744 37.0753C27.9887 37.0753 28.322 37.4086 28.9887 38.0753L39.9488 49.0354C41.2822 50.3688 41.9488 51.0354 42.7773 51.0354C43.6057 51.0354 44.2724 50.3688 45.6057 49.0354L48.4341 46.207C49.7674 44.8737 50.4341 44.207 50.4341 43.3786C50.4341 42.5501 49.7675 41.8835 48.4341 40.5501L37.4739 29.59C36.8073 28.9233 36.4739 28.59 36.4739 28.1758C36.4739 27.7615 36.8073 27.4282 37.4739 26.7615L48.7876 15.4478C50.121 14.1145 50.7876 13.4478 50.7876 12.6194C50.7876 11.791 50.121 11.1243 48.7876 9.79099L45.9592 6.96256C44.6259 5.62922 43.9592 4.96256 43.1308 4.96256C42.3024 4.96256 41.6357 5.62922 40.3024 6.96256L28.9887 18.2763C28.322 18.9429 27.9887 19.2763 27.5744 19.2763C27.1602 19.2763 26.8269 18.9429 26.1602 18.2763L15.2001 7.31613C13.8668 5.9828 13.2001 5.31613 12.3717 5.31613C11.5432 5.31613 10.8766 5.9828 9.54324 7.31613L6.71482 10.1446C5.38148 11.4779 4.71482 12.1446 4.71482 12.973Z" fill="#052D44"/>
</g>
<defs>
<clipPath id="clip0_593_2561">
<rect width="56" height="56" fill="white"/>
</clipPath>
</defs>
</svg>
