<svg width="96" height="96" viewBox="0 0 96 96" fill="none" xmlns="http://www.w3.org/2000/svg">
<path fill-rule="evenodd" clip-rule="evenodd" d="M26.4597 33.376C25.0733 31.933 23.6861 30.4907 22.3006 29.0468C19.009 25.6165 15.054 21.8759 9.85534 23.85C4.68362 25.8138 4.17396 31.2148 3.9374 35.9481C3.4472 45.7563 2.95913 55.5647 2.4489 65.3718C2.30059 68.2223 2.52779 71.0275 4.47726 73.3078C6.43522 75.598 9.18324 76.2537 12.0357 76.529C33.9399 78.6437 55.8415 80.7912 77.7393 82.9713C80.5909 83.2553 83.414 83.1458 85.7795 81.2795C88.1348 79.4213 88.9025 76.7136 89.3107 73.8886C90.7144 64.1691 92.1417 54.4529 93.5656 44.7363C94.2529 40.0471 94.802 34.65 90.1102 31.719C85.394 28.7728 80.7878 31.6739 76.8927 34.3995C75.1739 35.6023 73.4536 36.803 71.7341 38.0047C67.3843 32.6645 63.0305 27.3277 58.6848 21.9842C56.3948 19.1684 53.8737 16.4661 50.0022 16.1738C46.1312 15.8816 43.2328 18.1742 40.5454 20.613C35.8535 24.8709 31.155 29.1217 26.4597 33.376Z" fill="#052D44"/>
<path d="M30.22 45.1076C29.0144 46.1999 28.4116 46.7461 27.6951 46.7216C26.9786 46.6972 26.4156 46.1112 25.2896 44.9393L19.9894 39.4225C17.5524 36.886 16.3339 35.6177 15.2421 36.0323C14.1504 36.4468 14.0611 38.2117 13.8826 41.7415L12.5684 67.7188C12.4867 69.3343 12.4458 70.1421 12.9101 70.6852C13.3744 71.2283 14.1728 71.3065 15.7696 71.4631L74.4803 77.2197C76.0771 77.3763 76.8755 77.4546 77.4364 77.0121C77.9974 76.5695 78.1142 75.7692 78.3478 74.1685L82.1044 48.4307C82.6148 44.9335 82.87 43.1848 81.8796 42.5661C80.8892 41.9474 79.4476 42.9549 76.5643 44.9698L70.1708 49.4376C68.8921 50.3312 68.2527 50.778 67.5653 50.6819C66.8779 50.5857 66.385 49.9805 65.3991 48.7702L52.2796 32.6638C50.6194 30.6256 49.7893 29.6065 48.6532 29.5207C47.5171 29.435 46.5427 30.3178 44.5939 32.0836L30.22 45.1076Z" fill="#021F2F"/>
<path d="M29.0137 36.7414C27.6717 37.9574 27.0007 38.5654 26.2031 38.5381C25.4055 38.5109 24.7788 37.8586 23.5254 36.5541L17.6254 30.4131C14.9126 27.5895 13.5562 26.1777 12.341 26.6392C11.1257 27.1007 11.0263 29.0653 10.8275 32.9944L9.36472 61.9113C9.27374 63.7097 9.22826 64.6089 9.74507 65.2134C10.2619 65.8179 11.1506 65.905 12.9281 66.0793L78.2824 72.4874C80.0599 72.6616 80.9486 72.7488 81.573 72.2562C82.1974 71.7636 82.3274 70.8727 82.5875 69.0908L86.7692 40.4406C87.3374 36.5476 87.6215 34.6012 86.519 33.9124C85.4165 33.2237 83.8117 34.3451 80.6022 36.588L73.4852 41.5615C72.0618 42.5562 71.3501 43.0535 70.5849 42.9465C69.8197 42.8395 69.271 42.1658 68.1735 40.8185L53.5695 22.8895C51.7214 20.6207 50.7974 19.4863 49.5327 19.3909C48.268 19.2954 47.1834 20.2782 45.0141 22.2437L29.0137 36.7414Z" fill="#FFC90B"/>
<rect x="47.7031" y="26.1445" width="6.86799" height="16.0253" rx="3.43399" transform="rotate(48 47.7031 26.1445)" fill="white"/>
</svg>
