<svg width="78" height="79" viewBox="0 0 78 79" fill="none" xmlns="http://www.w3.org/2000/svg">
<path d="M73.9707 37.7705C73.7949 37.1137 73.707 36.7853 73.7555 36.4654C73.804 36.1455 73.9831 35.8614 74.3413 35.2932L75.6332 33.2438C77.9553 29.56 76.3673 24.6726 72.3234 23.0573L70.0491 22.1489C69.4272 21.9004 69.1162 21.7762 68.8893 21.5468C68.6624 21.3173 68.5401 21.0012 68.2957 20.3689C68.1359 19.9556 67.9744 19.5426 67.8111 19.1297C66.216 15.0959 64.7719 11.4441 61.4616 9.04906C58.1512 6.65395 54.2224 6.42411 49.8807 6.17013C49.4075 6.14244 48.9347 6.11655 48.4622 6.09246C47.7827 6.05782 47.443 6.04049 47.153 5.89545C46.863 5.75041 46.6478 5.49188 46.2174 4.97482L44.3544 2.73668C41.5685 -0.610145 36.4296 -0.610141 33.6437 2.73668L31.7808 4.97471C31.3504 5.49178 31.1352 5.75031 30.8452 5.89535C30.5552 6.0404 30.2155 6.05771 29.536 6.09235C29.0628 6.11647 28.5892 6.1424 28.1153 6.17013C23.7736 6.42412 19.8448 6.65396 16.5344 9.04907C13.2241 11.4441 11.78 15.0959 10.1849 19.1297C10.0215 19.5429 9.85988 19.9563 9.69998 20.3698C9.45551 21.0022 9.33327 21.3183 9.10636 21.5478C8.87945 21.7772 8.56847 21.9014 7.94652 22.1499L5.67477 23.0573C1.63086 24.6726 0.0428501 29.56 2.36498 33.2438L3.65537 35.2908C4.01355 35.859 4.19264 36.1431 4.24114 36.4631C4.28963 36.783 4.20172 37.1114 4.02591 37.7682C3.81566 38.5535 3.6106 39.3417 3.4106 40.133C2.36827 44.2571 1.42436 47.9918 2.66162 51.8224C3.89883 55.6528 6.84266 58.1244 10.0921 60.8526C10.6565 61.3264 11.2228 61.7953 11.7912 62.2595C12.316 62.688 12.5784 62.9023 12.7259 63.1885C12.8735 63.4747 12.8955 63.8083 12.9395 64.4755L13.0482 66.1233C13.3348 70.4684 17.4923 73.489 21.7133 72.4189L23.2774 72.0223C23.9283 71.8573 24.2538 71.7748 24.5728 71.8274C24.8918 71.88 25.1774 72.0651 25.7484 72.4352C26.5519 72.9561 27.3619 73.4709 28.1788 73.9799C31.7537 76.2078 34.993 78.2266 38.998 78.2266C43.003 78.2266 46.2423 76.2078 49.8173 73.9799C50.6343 73.4707 51.4445 72.9558 52.2483 72.4348C52.8193 72.0647 53.1048 71.8796 53.4238 71.827C53.7428 71.7744 54.0683 71.8569 54.7192 72.0219L56.2848 72.4189C60.5059 73.489 64.6634 70.4684 64.95 66.1233L65.0588 64.4737C65.1028 63.8065 65.1248 63.4729 65.2723 63.1867C65.4199 62.9005 65.6822 62.6862 66.207 62.2577C66.7747 61.7941 67.3403 61.3258 67.9039 60.8525C71.1534 58.1244 74.0972 55.6528 75.3344 51.8224C76.5717 47.9918 75.6278 44.2571 74.5854 40.133C74.3856 39.3425 74.1808 38.5551 73.9707 37.7705Z" fill="#052D44"/>
<path d="M41.2294 10.366C40.0679 8.97694 37.9253 8.97694 36.7638 10.366L30.4644 17.8997C30.3277 18.0632 30.1298 18.1634 29.9169 18.1744C26.9757 18.3269 23.4849 18.2458 21.0087 20.0286C19.167 21.3546 18.2796 23.3241 16.7748 27.0684C16.6957 27.2653 16.539 27.422 16.3418 27.5005L9.08243 30.3871C7.39641 31.0576 6.73432 33.0861 7.70249 34.615L11.6945 40.9193C11.8109 41.1032 11.8445 41.3276 11.7876 41.5377C11.4665 42.7227 11.1546 43.9246 10.8602 45.0944C9.73289 49.5721 9.16925 51.811 9.91448 54.107C10.6597 56.4031 12.4275 57.8863 15.963 60.8527C16.5379 61.335 17.1257 61.8234 17.7183 62.3095C17.8841 62.4455 17.9865 62.644 18.0007 62.858L18.2758 67.0098C18.3953 68.8133 20.1287 70.067 21.8886 69.6228L25.7602 68.6457C25.9716 68.5923 26.1955 68.6306 26.3775 68.7505C27.7995 69.6871 29.293 70.6312 30.7348 71.5213C34.6343 73.9285 36.5841 75.1321 38.9966 75.1321C41.4091 75.1321 43.3588 73.9285 47.2583 71.5213C48.7002 70.6312 50.1937 69.6872 51.6156 68.7505C51.7977 68.6307 52.0216 68.5923 52.2329 68.6457L56.1046 69.6228C57.8645 70.067 59.5978 68.8133 59.7173 67.0098L59.9924 62.858C60.0066 62.644 60.109 62.4455 60.2749 62.3095C60.8674 61.8234 61.4553 61.335 62.0301 60.8527C65.5657 57.8863 67.3334 56.4031 68.0787 54.107C68.8239 51.811 68.2603 49.5721 67.133 45.0944C66.8385 43.9247 66.5267 42.7227 66.2056 41.5377C66.1486 41.3276 66.1822 41.1032 66.2986 40.9193L70.2907 34.615C71.2588 33.0861 70.5967 31.0576 68.9107 30.3871L61.6513 27.5005C61.4541 27.422 61.2975 27.2653 61.2183 27.0684C59.7136 23.324 58.8262 21.3546 56.9844 20.0286C54.9907 18.5932 52.6198 18.4501 47.878 18.164C47.7918 18.1588 47.7116 18.1184 47.6562 18.0522L41.2294 10.366Z" fill="#021F2F"/>
<path d="M41.3818 3.66639C40.1436 2.17891 37.8596 2.17891 36.6214 3.66639L33.1353 7.85452C32.9206 8.11245 32.8132 8.24142 32.668 8.31396C32.5227 8.3865 32.3544 8.3949 32.0176 8.4117C31.0909 8.45792 30.1642 8.5098 29.2546 8.56495C24.0507 8.88046 21.4487 9.03822 19.2607 10.6213C17.0728 12.2043 16.112 14.6188 14.1906 19.4478C13.8358 20.3396 13.4787 21.251 13.1284 22.1641C13.0079 22.4781 12.9477 22.6352 12.834 22.7504C12.7203 22.8656 12.5649 22.9277 12.2541 23.0519L7.11326 25.1053C5.31597 25.8233 4.61019 27.9955 5.64225 29.6327L8.62267 34.3607C8.79992 34.6419 8.88855 34.7825 8.91302 34.9415C8.9375 35.1005 8.89505 35.262 8.81014 35.5852C8.57417 36.4832 8.34427 37.3819 8.12328 38.264C6.88616 43.2021 6.26759 45.6712 7.08544 48.2033C7.9033 50.7354 9.84332 52.3711 13.7234 55.6425C14.4579 56.2618 15.2118 56.8902 15.9706 57.513C16.2284 57.7246 16.3573 57.8304 16.4307 57.9732C16.504 58.1159 16.5149 58.2814 16.5368 58.6124L16.9134 64.3216C17.0408 66.2528 18.8885 67.5953 20.7645 67.1197L26.3283 65.7092C26.6492 65.6278 26.8096 65.5871 26.9678 65.6126C27.1259 65.6381 27.2662 65.7276 27.5468 65.9066C28.3457 66.4162 29.1472 66.9195 29.9346 67.408C34.2141 70.0626 36.3538 71.39 39.0014 71.39C41.649 71.39 43.7887 70.0627 48.0682 67.408C48.8557 66.9194 49.6572 66.4162 50.4561 65.9065C50.7367 65.7275 50.877 65.638 51.0352 65.6126C51.1934 65.5871 51.3538 65.6277 51.6747 65.7091L57.2387 67.1197C59.1147 67.5953 60.9625 66.2528 61.0898 64.3216L61.4665 58.6121C61.4883 58.2811 61.4992 58.1156 61.5726 57.9729C61.6459 57.8301 61.7748 57.7243 62.0326 57.5127C62.7913 56.89 63.5451 56.2617 64.2795 55.6425C68.1595 52.3711 70.0995 50.7354 70.9174 48.2033C71.7352 45.6712 71.1167 43.2021 69.8796 38.2641C69.6586 37.3821 69.4287 36.4835 69.1928 35.5856C69.1079 35.2625 69.0655 35.1009 69.0899 34.9419C69.1144 34.783 69.203 34.6424 69.3803 34.3612L72.361 29.6327C73.393 27.9955 72.6872 25.8233 70.8899 25.1053L65.7486 23.0517C65.4378 22.9275 65.2825 22.8655 65.1688 22.7502C65.0551 22.635 64.9949 22.478 64.8744 22.1639C64.5241 21.2509 64.167 20.3396 63.8122 19.4479C61.8908 14.6189 60.9301 12.2043 58.7421 10.6213C56.5541 9.03822 53.9521 8.88046 48.7482 8.56494C47.8388 8.5098 46.9122 8.45793 45.9856 8.41171C45.6489 8.39492 45.4805 8.38652 45.3353 8.31398C45.19 8.24144 45.0827 8.11247 44.868 7.85454L41.3818 3.66639Z" fill="#FFC90B"/>
<g filter="url(#filter0_i_593_2494)">
<path d="M42.0284 62.1381C40.572 63.0008 39.8437 63.4321 38.9954 63.4321C38.1471 63.4321 37.4189 63.0008 35.9624 62.1381C33.1517 60.4734 28.9715 57.9213 26.0181 55.781C23.0625 53.6391 19.3371 50.4613 16.8722 48.3006C15.5853 47.1725 14.9419 46.6085 14.6793 45.7941C14.4167 44.9796 14.6098 44.1448 14.996 42.4753C15.7306 39.2997 16.8841 34.5817 17.9978 31.1346C19.1171 27.67 20.9515 23.1513 22.2276 20.1186C22.9057 18.5071 23.2448 17.7013 23.9495 17.1925C24.6543 16.6838 25.5272 16.6156 27.2729 16.4792C30.5389 16.2241 35.375 15.9023 38.9954 15.9023C42.6158 15.9023 47.4519 16.2241 50.7179 16.4792C52.4636 16.6156 53.3365 16.6838 54.0413 17.1925C54.7461 17.7013 55.0851 18.5071 55.7632 20.1186C57.0393 23.1513 58.8737 27.67 59.9931 31.1346C61.1067 34.5817 62.2602 39.2997 62.9948 42.4753C63.381 44.1448 63.5741 44.9796 63.3115 45.7941C63.0489 46.6085 62.4055 47.1725 61.1186 48.3006C58.6537 50.4613 54.9283 53.6391 51.9727 55.781C49.0193 57.9213 44.8391 60.4734 42.0284 62.1381Z" fill="#F39508"/>
</g>
<circle cx="24.289" cy="17.8398" r="3.87106" fill="white"/>
<defs>
<filter id="filter0_i_593_2494" x="14.5586" y="15.9023" width="48.875" height="47.5312" filterUnits="userSpaceOnUse" color-interpolation-filters="sRGB">
<feFlood flood-opacity="0" result="BackgroundImageFix"/>
<feBlend mode="normal" in="SourceGraphic" in2="BackgroundImageFix" result="shape"/>
<feColorMatrix in="SourceAlpha" type="matrix" values="0 0 0 0 0 0 0 0 0 0 0 0 0 0 0 0 0 0 127 0" result="hardAlpha"/>
<feOffset dx="2.541" dy="2.541"/>
<feComposite in2="hardAlpha" operator="arithmetic" k2="-1" k3="1"/>
<feColorMatrix type="matrix" values="0 0 0 0 0.878431 0 0 0 0 0.47451 0 0 0 0 0 0 0 0 1 0"/>
<feBlend mode="normal" in2="shape" result="effect1_innerShadow_593_2494"/>
</filter>
</defs>
</svg>
