<svg width="80" height="81" viewBox="0 0 80 81" fill="none" xmlns="http://www.w3.org/2000/svg">
<path d="M75.8695 38.7839C75.6892 38.1103 75.5991 37.7735 75.6488 37.4454C75.6985 37.1173 75.8822 36.8259 76.2496 36.2431L77.5746 34.1412C79.9562 30.3629 78.3275 25.3502 74.1799 23.6935L71.8473 22.7618C71.2094 22.507 70.8905 22.3796 70.6578 22.1442C70.425 21.9089 70.2997 21.5846 70.0489 20.9361C69.8851 20.5123 69.7194 20.0886 69.5519 19.6652C67.9159 15.5279 66.4348 11.7825 63.0397 9.32606C59.6444 6.86954 55.6148 6.63381 51.1618 6.37331C50.6764 6.34491 50.1915 6.31836 49.7069 6.29365C49.01 6.25812 48.6616 6.24035 48.3642 6.09159C48.0668 5.94283 47.846 5.67767 47.4046 5.14735L45.4938 2.85182C42.6365 -0.580817 37.3658 -0.580814 34.5085 2.85182L32.5978 5.14724C32.1563 5.67756 31.9356 5.94273 31.6382 6.09149C31.3407 6.24025 30.9923 6.25801 30.2954 6.29354C29.8101 6.31828 29.3244 6.34487 28.8383 6.37331C24.3853 6.63381 20.3557 6.86954 16.9604 9.32607C13.5653 11.7825 12.0842 15.5279 10.4482 19.6651C10.2806 20.089 10.1148 20.5129 9.9508 20.9371C9.70006 21.5857 9.57468 21.9099 9.34196 22.1453C9.10923 22.3806 8.79028 22.508 8.15238 22.7628L5.82238 23.6935C1.67478 25.3502 0.0460524 30.363 2.42772 34.1412L3.7512 36.2407C4.11857 36.8235 4.30225 37.1149 4.35199 37.443C4.40173 37.7711 4.31156 38.1079 4.13124 38.7815C3.91561 39.5871 3.70528 40.3955 3.50016 41.207C2.4311 45.4369 1.46299 49.2673 2.73197 53.1961C4.00091 57.1248 7.02022 59.6598 10.353 62.4579C10.9318 62.9438 11.5126 63.4248 12.0957 63.9009C12.6339 64.3404 12.903 64.5601 13.0543 64.8537C13.2056 65.1473 13.2282 65.4894 13.2734 66.1737L13.3848 67.8637C13.6788 72.3203 17.9429 75.4183 22.2722 74.3207L23.8763 73.914C24.544 73.7448 24.8778 73.6601 25.205 73.7141C25.5322 73.768 25.825 73.9578 26.4107 74.3375C27.2348 74.8717 28.0656 75.3997 28.9034 75.9218C32.57 78.2068 35.8923 80.2773 40.0001 80.2773C44.1078 80.2774 47.4301 78.2068 51.0967 75.9218C51.9347 75.3996 52.7657 74.8714 53.59 74.3371C54.1757 73.9575 54.4685 73.7676 54.7957 73.7137C55.1229 73.6597 55.4567 73.7444 56.1244 73.9136L57.7301 74.3207C62.0594 75.4183 66.3235 72.3203 66.6175 67.8637L66.7291 66.1718C66.7742 65.4876 66.7968 65.1454 66.9481 64.8519C67.0994 64.5583 67.3685 64.3386 67.9067 63.8991C68.489 63.4235 69.0691 62.9432 69.6472 62.4578C72.9799 59.6597 75.9992 57.1248 77.2681 53.1961C78.5371 49.2673 77.569 45.4369 76.5 41.2071C76.295 40.3963 76.0849 39.5887 75.8695 38.7839Z" fill="#052D44"/>
<path d="M42.2919 10.674C41.1006 9.24929 38.9031 9.24929 37.7118 10.674L31.251 18.4008C31.1107 18.5685 30.9078 18.6713 30.6894 18.6826C27.6728 18.839 24.0925 18.7558 21.5528 20.5843C19.6639 21.9444 18.7537 23.9643 17.2103 27.8046C17.1292 28.0066 16.9685 28.1673 16.7662 28.2478L9.32072 31.2084C7.59147 31.8961 6.91241 33.9766 7.90539 35.5448L11.9998 42.0107C12.1192 42.1993 12.1536 42.4294 12.0952 42.6449C11.7659 43.8603 11.4461 45.0931 11.144 46.2928C9.98786 50.8853 9.40977 53.1816 10.1741 55.5365C10.9385 57.8915 12.7515 59.4127 16.3777 62.4552C16.9673 62.9499 17.5703 63.4508 18.178 63.9493C18.3481 64.0888 18.4531 64.2924 18.4677 64.5119L18.7498 68.7702C18.8724 70.6199 20.6502 71.9057 22.4552 71.4502L26.4262 70.448C26.6429 70.3933 26.8726 70.4326 27.0593 70.5555C28.5177 71.5162 30.0495 72.4844 31.5283 73.3973C35.5278 75.8663 37.5275 77.1007 40.0019 77.1007C42.4763 77.1007 44.476 75.8663 48.4754 73.3973C49.9543 72.4844 51.4861 71.5162 52.9445 70.5555C53.1312 70.4326 53.3609 70.3933 53.5776 70.448L57.5486 71.4502C59.3536 71.9057 61.1314 70.6199 61.254 68.7702L61.5361 64.5119C61.5507 64.2924 61.6557 64.0888 61.8258 63.9493C62.4335 63.4508 63.0365 62.9498 63.6261 62.4552C67.2522 59.4127 69.0653 57.8915 69.8297 55.5365C70.594 53.1816 70.0159 50.8853 68.8597 46.2928C68.5577 45.0931 68.2379 43.8604 67.9085 42.6449C67.8501 42.4294 67.8846 42.1993 68.004 42.0107L72.0984 35.5448C73.0914 33.9766 72.4123 31.8961 70.6831 31.2084L63.2375 28.2478C63.0352 28.1673 62.8746 28.0066 62.7934 27.8046C61.2501 23.9643 60.3399 21.9444 58.451 20.5843C56.4061 19.1121 53.9744 18.9654 49.111 18.6719C49.0226 18.6666 48.9404 18.6251 48.8836 18.5572L42.2919 10.674Z" fill="#021F2F"/>
<path d="M42.4393 3.80437C41.1694 2.27875 38.8269 2.27875 37.557 3.80437L33.9814 8.09988C33.7612 8.36443 33.6511 8.49671 33.5021 8.57111C33.3531 8.64551 33.1804 8.65412 32.835 8.67135C31.8846 8.71875 30.9341 8.77197 30.0012 8.82853C24.6639 9.15214 21.9952 9.31394 19.7511 10.9376C17.507 12.5612 16.5217 15.0376 14.551 19.9905C14.187 20.9051 13.8208 21.8399 13.4615 22.7764C13.3379 23.0985 13.2761 23.2595 13.1595 23.3777C13.043 23.4959 12.8836 23.5596 12.5648 23.6869L7.29215 25.793C5.44878 26.5294 4.72489 28.7572 5.78341 30.4365L8.84026 35.2857C9.02206 35.5741 9.11296 35.7183 9.13806 35.8814C9.16316 36.0445 9.11962 36.2102 9.03254 36.5416C8.79051 37.4626 8.55472 38.3844 8.32806 39.2891C7.05922 44.3538 6.4248 46.8862 7.26362 49.4832C8.10244 52.0803 10.0922 53.7579 14.0718 57.1132C14.8251 57.7484 15.5983 58.3929 16.3766 59.0317C16.641 59.2487 16.7732 59.3572 16.8485 59.5036C16.9237 59.6501 16.9349 59.8198 16.9573 60.1593L17.3435 66.0149C17.4742 67.9956 19.3693 69.3725 21.2935 68.8847L26.9999 67.438C27.329 67.3545 27.4935 67.3128 27.6557 67.339C27.8179 67.3651 27.9618 67.4569 28.2496 67.6405C29.069 68.1632 29.891 68.6793 30.6987 69.1803C35.0879 71.9031 37.2825 73.2645 39.9979 73.2645C42.7134 73.2645 44.908 71.9031 49.2972 69.1803C50.1049 68.6793 50.927 68.1631 51.7464 67.6404C52.0342 67.4568 52.1781 67.365 52.3403 67.3389C52.5025 67.3127 52.6671 67.3545 52.9962 67.4379L58.7028 68.8847C60.6269 69.3725 62.5221 67.9956 62.6528 66.0149L63.039 60.1589C63.0614 59.8195 63.0726 59.6497 63.1478 59.5033C63.2231 59.3569 63.3553 59.2484 63.6197 59.0313C64.3978 58.3926 65.1709 57.7482 65.9242 57.1132C69.9037 53.7579 71.8934 52.0803 72.7323 49.4832C73.5711 46.8862 72.9367 44.3538 71.6678 39.2892C71.4412 38.3846 71.2055 37.4629 70.9635 36.542C70.8764 36.2106 70.8329 36.0449 70.858 35.8818C70.8831 35.7188 70.974 35.5746 71.1558 35.2862L74.2129 30.4365C75.2714 28.7572 74.5475 26.5294 72.7041 25.793L67.431 23.6867C67.1122 23.5594 66.9529 23.4957 66.8363 23.3775C66.7197 23.2593 66.6579 23.0983 66.5343 22.7762C66.1751 21.8398 65.8088 20.9051 65.4449 19.9905C63.4743 15.0377 62.4889 12.5612 60.2448 10.9376C58.0007 9.31394 55.332 9.15213 49.9947 8.82853C49.0619 8.77197 48.1116 8.71877 47.1613 8.67137C46.8159 8.65414 46.6432 8.64553 46.4942 8.57113C46.3452 8.49673 46.2351 8.36445 46.0149 8.0999L42.4393 3.80437Z" fill="#D7E4FF"/>
<g filter="url(#filter0_i_593_2507)">
<path d="M43.1117 63.7768C41.6179 64.6616 40.8709 65.104 40.0009 65.104C39.1308 65.104 38.3839 64.6616 36.8901 63.7768C34.0073 62.0694 29.72 59.4518 26.6909 57.2566C23.6595 55.0598 19.8385 51.8006 17.3104 49.5845C15.9905 48.4275 15.3306 47.849 15.0613 47.0137C14.792 46.1783 14.99 45.3221 15.3861 43.6097C16.1395 40.3528 17.3226 35.5138 18.4648 31.9783C19.6129 28.4249 21.4943 23.7903 22.8031 20.6799C23.4986 19.027 23.8464 18.2005 24.5692 17.6788C25.2921 17.157 26.1873 17.087 27.9778 16.9471C31.3276 16.6855 36.2877 16.3555 40.0009 16.3555C43.7141 16.3555 48.6742 16.6854 52.024 16.9471C53.8145 17.087 54.7097 17.157 55.4326 17.6787C56.1554 18.2005 56.5032 19.027 57.1987 20.6799C58.5075 23.7903 60.3889 28.4249 61.5369 31.9783C62.6792 35.5138 63.8623 40.3528 64.6156 43.6097C65.0117 45.3221 65.2098 46.1783 64.9405 47.0137C64.6712 47.849 64.0112 48.4275 62.6914 49.5845C60.1633 51.8006 56.3423 55.0598 53.3109 57.2566C50.2818 59.4518 45.9944 62.0694 43.1117 63.7768Z" fill="#AFC0E2"/>
</g>
<circle cx="24.9156" cy="18.3414" r="3.97031" fill="white"/>
<defs>
<filter id="filter0_i_593_2507" x="14.9375" y="16.3555" width="50.125" height="48.75" filterUnits="userSpaceOnUse" color-interpolation-filters="sRGB">
<feFlood flood-opacity="0" result="BackgroundImageFix"/>
<feBlend mode="normal" in="SourceGraphic" in2="BackgroundImageFix" result="shape"/>
<feColorMatrix in="SourceAlpha" type="matrix" values="0 0 0 0 0 0 0 0 0 0 0 0 0 0 0 0 0 0 127 0" result="hardAlpha"/>
<feOffset dx="2.14397" dy="2.14397"/>
<feComposite in2="hardAlpha" operator="arithmetic" k2="-1" k3="1"/>
<feColorMatrix type="matrix" values="0 0 0 0 0.522013 0 0 0 0 0.597987 0 0 0 0 0.749935 0 0 0 1 0"/>
<feBlend mode="normal" in2="shape" result="effect1_innerShadow_593_2507"/>
</filter>
</defs>
</svg>
