<svg width="82" height="83" viewBox="0 0 82 83" fill="none" xmlns="http://www.w3.org/2000/svg">
<path d="M77.7644 39.7544C77.5796 39.0639 77.4872 38.7187 77.5382 38.3824C77.5892 38.0461 77.7774 37.7474 78.154 37.1501L79.5121 34.9956C81.9533 31.1229 80.2838 25.9849 76.0325 24.2867L73.6417 23.3317C72.9878 23.0705 72.6609 22.9399 72.4224 22.6987C72.1838 22.4575 72.0553 22.1251 71.7983 21.4604C71.6303 21.026 71.4605 20.5917 71.2889 20.1577C69.612 15.917 68.0938 12.0779 64.6138 9.56009C61.1337 7.04216 57.0034 6.80053 52.439 6.53352C51.9415 6.50441 51.4444 6.4772 50.9477 6.45187C50.2334 6.41545 49.8763 6.39724 49.5714 6.24476C49.2666 6.09228 49.0403 5.82049 48.5879 5.27691L46.6293 2.924C43.7005 -0.594459 38.2981 -0.594455 35.3693 2.924L33.4109 5.2768C32.9584 5.82038 32.7321 6.09218 32.4273 6.24466C32.1224 6.39714 31.7653 6.41534 31.051 6.45175C30.5535 6.47711 30.0557 6.50437 29.5574 6.53352C24.993 6.80054 20.8627 7.04216 17.3826 9.5601C13.9026 12.0779 12.3844 15.917 10.7075 20.1576C10.5357 20.5921 10.3658 21.0266 10.1977 21.4614C9.9407 22.1262 9.8122 22.4586 9.57365 22.6998C9.33511 22.941 9.00818 23.0716 8.35433 23.3327L5.96608 24.2867C1.7148 25.9849 0.0453482 31.1229 2.48656 34.9956L3.84313 37.1476C4.21967 37.7449 4.40795 38.0436 4.45893 38.3799C4.50991 38.7163 4.4175 39.0615 4.23266 39.752C4.01164 40.5776 3.79606 41.4062 3.58581 42.2381C2.49002 46.5737 1.49771 50.4998 2.79841 54.5269C4.09907 58.5538 7.19387 61.1521 10.6099 64.0202C11.2032 64.5183 11.7986 65.0113 12.3962 65.4993C12.9479 65.9498 13.2237 66.175 13.3788 66.4759C13.5339 66.7768 13.5571 67.1275 13.6033 67.8289L13.7176 69.5612C14.0189 74.1291 18.3896 77.3046 22.8271 76.1796L24.4714 75.7628C25.1557 75.5893 25.4979 75.5025 25.8333 75.5578C26.1687 75.6131 26.4688 75.8077 27.0691 76.1968C27.9139 76.7444 28.7654 77.2856 29.6241 77.8208C33.3824 80.1629 36.7878 82.2852 40.9982 82.2852C45.2086 82.2852 48.614 80.1629 52.3723 77.8208C53.2312 77.2855 54.083 76.7441 54.9279 76.1964C55.5282 75.8073 55.8284 75.6127 56.1638 75.5574C56.4991 75.5021 56.8413 75.5889 57.5256 75.7624L59.1715 76.1796C63.609 77.3046 67.9797 74.1291 68.281 69.5612L68.3954 67.827C68.4417 67.1256 68.4648 66.7749 68.6199 66.474C68.775 66.1731 69.0508 65.9479 69.6025 65.4974C70.1994 65.01 70.7939 64.5176 71.3865 64.0202C74.8025 61.1521 77.8973 58.5538 79.198 54.5269C80.4987 50.4998 79.5064 46.5737 78.4106 42.2381C78.2006 41.4071 77.9852 40.5793 77.7644 39.7544Z" fill="#052D44"/>
<path d="M43.3467 10.939C42.1256 9.47867 39.8732 9.47867 38.6521 10.939L32.0297 18.8589C31.886 19.0309 31.6779 19.1362 31.4541 19.1478C28.3621 19.3081 24.6923 19.2228 22.0891 21.0971C20.1529 22.4911 19.22 24.5615 17.6381 28.4979C17.5549 28.7049 17.3902 28.8697 17.1829 28.9521L9.5512 31.9868C7.77872 32.6916 7.08268 34.8242 8.10049 36.4315L12.2972 43.0591C12.4196 43.2525 12.4549 43.4883 12.3951 43.7092C12.0575 44.955 11.7297 46.2186 11.4201 47.4483C10.235 52.1556 9.64247 54.5093 10.4259 56.9231C11.2094 59.3369 13.0678 60.8962 16.7846 64.0147C17.389 64.5217 18.007 65.0352 18.6299 65.5462C18.8043 65.6892 18.9119 65.8979 18.9268 66.1229L19.216 70.4876C19.3417 72.3835 21.1639 73.7015 23.0141 73.2346L27.0843 72.2073C27.3064 72.1513 27.5419 72.1915 27.7332 72.3176C29.2281 73.3022 30.7982 74.2947 32.314 75.2304C36.4134 77.7611 38.4632 79.0264 40.9994 79.0264C43.5356 79.0264 45.5853 77.7611 49.6848 75.2304C51.2006 74.2947 52.7707 73.3022 54.2656 72.3176C54.4569 72.1915 54.6924 72.1513 54.9145 72.2073L58.9847 73.2346C60.8349 73.7015 62.6571 72.3835 62.7828 70.4876L63.072 66.1229C63.0869 65.8979 63.1945 65.6892 63.3689 65.5462C63.9918 65.0352 64.6098 64.5217 65.2142 64.0147C68.931 60.8962 70.7894 59.3369 71.5729 56.9231C72.3563 54.5093 71.7638 52.1556 70.5787 47.4483C70.2691 46.2186 69.9413 44.955 69.6037 43.7092C69.5439 43.4883 69.5792 43.2525 69.7016 43.0591L73.8983 36.4315C74.9161 34.8242 74.2201 32.6916 72.4476 31.9868L64.8159 28.9521C64.6086 28.8697 64.4439 28.7049 64.3607 28.4979C62.7788 24.5615 61.8459 22.4911 59.9097 21.0971C57.8138 19.588 55.3213 19.4376 50.3362 19.1369C50.2457 19.1314 50.1614 19.0889 50.1032 19.0193L43.3467 10.939Z" fill="#021F2F"/>
<path d="M43.5008 3.89938C42.1991 2.33562 39.798 2.33562 38.4964 3.89938L34.8314 8.30228C34.6057 8.57345 34.4928 8.70903 34.3401 8.78529C34.1875 8.86155 34.0104 8.87038 33.6564 8.88803C32.6822 8.93663 31.708 8.99117 30.7517 9.04915C25.281 9.38084 22.5456 9.54669 20.2454 11.2109C17.9452 12.8751 16.9352 15.4135 14.9152 20.4901C14.5422 21.4276 14.1668 22.3858 13.7985 23.3457C13.6719 23.6758 13.6085 23.8409 13.489 23.9621C13.3695 24.0832 13.2062 24.1485 12.8795 24.279L7.47494 26.4378C5.58548 27.1925 4.84351 29.4761 5.92849 31.1973L9.06175 36.1678C9.2481 36.4634 9.34127 36.6112 9.367 36.7783C9.39273 36.9455 9.3481 37.1153 9.25884 37.455C9.01076 38.3991 8.76908 39.3439 8.53675 40.2713C7.23619 45.4626 6.5859 48.0583 7.4457 50.7202C8.30549 53.3822 10.345 55.1018 14.424 58.5409C15.1962 59.192 15.9888 59.8526 16.7865 60.5074C17.0575 60.7298 17.193 60.8411 17.2702 60.9911C17.3473 61.1412 17.3588 61.3152 17.3817 61.6631L17.7776 67.6651C17.9115 69.6954 19.8541 71.1067 21.8263 70.6067L27.6753 69.1238C28.0127 69.0383 28.1813 68.9955 28.3476 69.0223C28.5139 69.0491 28.6614 69.1432 28.9564 69.3314C29.7962 69.8671 30.6388 70.3962 31.4666 70.9097C35.9656 73.7006 38.215 75.096 40.9984 75.096C43.7817 75.096 46.0312 73.7006 50.5301 70.9097C51.358 70.3962 52.2007 69.8671 53.0405 69.3313C53.3355 69.1431 53.483 69.049 53.6493 69.0223C53.8155 68.9955 53.9842 69.0382 54.3215 69.1237L60.1709 70.6067C62.1431 71.1067 64.0856 69.6954 64.2196 67.6651L64.6155 61.6628C64.6384 61.3148 64.6499 61.1409 64.727 60.9908C64.8041 60.8407 64.9397 60.7295 65.2107 60.507C66.0083 59.8523 66.8007 59.1919 67.5728 58.5409C71.6518 55.1018 73.6913 53.3822 74.5511 50.7202C75.4109 48.0583 74.7606 45.4626 73.46 40.2713C73.2277 39.3441 72.9861 38.3994 72.7381 37.4554C72.6488 37.1158 72.6042 36.9459 72.6299 36.7788C72.6556 36.6117 72.7488 36.4639 72.9351 36.1682L76.0687 31.1973C77.1537 29.4761 76.4117 27.1925 74.5222 26.4378L69.1172 24.2788C68.7905 24.1483 68.6272 24.083 68.5077 23.9619C68.3882 23.8407 68.3248 23.6756 68.1982 23.3455C67.8299 22.3857 67.4546 21.4276 67.0816 20.4901C65.0616 15.4135 64.0516 12.8751 61.7514 11.2109C59.4512 9.54669 56.7158 9.38084 51.245 9.04914C50.2889 8.99117 49.3148 8.93664 48.3408 8.88805C47.9867 8.8704 47.8097 8.86157 47.657 8.78531C47.5044 8.70905 47.3915 8.57346 47.1658 8.3023L43.5008 3.89938Z" fill="#CD7F32"/>
<g filter="url(#filter0_i_593_2520)">
<path d="M44.191 65.3686C42.6599 66.2755 41.8943 66.7289 41.0025 66.7289C40.1107 66.7289 39.3451 66.2755 37.8139 65.3686C34.8591 63.6185 30.4645 60.9355 27.3597 58.6854C24.2525 56.4337 20.3361 53.093 17.7447 50.8214C16.3919 49.6355 15.7154 49.0426 15.4394 48.1864C15.1634 47.3301 15.3664 46.4525 15.7724 44.6973C16.5446 41.359 17.7572 36.399 18.928 32.7751C20.1047 29.1329 22.0332 24.3825 23.3748 21.1942C24.0877 19.5 24.4441 18.6529 25.185 18.1181C25.9259 17.5833 26.8436 17.5116 28.6788 17.3682C32.1124 17.0999 37.1964 16.7617 41.0025 16.7617C44.8086 16.7617 49.8926 17.0999 53.3261 17.3682C55.1614 17.5116 56.079 17.5833 56.8199 18.1181C57.5608 18.6529 57.9173 19.5 58.6302 21.1942C59.9717 24.3825 61.9002 29.1329 63.0769 32.7751C64.2477 36.399 65.4604 41.359 66.2326 44.6974C66.6386 46.4525 66.8416 47.3301 66.5656 48.1864C66.2895 49.0426 65.6131 49.6355 64.2602 50.8214C61.6689 53.093 57.7524 56.4337 54.6452 58.6854C51.5404 60.9355 47.1459 63.6185 44.191 65.3686Z" fill="#BD5B02"/>
</g>
<circle cx="25.5383" cy="18.8" r="4.06957" fill="white"/>
<defs>
<filter id="filter0_i_593_2520" x="15.3125" y="16.7617" width="51.3789" height="49.9688" filterUnits="userSpaceOnUse" color-interpolation-filters="sRGB">
<feFlood flood-opacity="0" result="BackgroundImageFix"/>
<feBlend mode="normal" in="SourceGraphic" in2="BackgroundImageFix" result="shape"/>
<feColorMatrix in="SourceAlpha" type="matrix" values="0 0 0 0 0 0 0 0 0 0 0 0 0 0 0 0 0 0 127 0" result="hardAlpha"/>
<feOffset dx="2.14397" dy="2.14397"/>
<feComposite in2="hardAlpha" operator="arithmetic" k2="-1" k3="1"/>
<feColorMatrix type="matrix" values="0 0 0 0 0.557992 0 0 0 0 0.235526 0 0 0 0 0.00201618 0 0 0 1 0"/>
<feBlend mode="normal" in2="shape" result="effect1_innerShadow_593_2520"/>
</filter>
</defs>
</svg>
